<?xml version="1.0" encoding="UTF-8"?>
<svg id="Layer_1" data-name="Layer 1" xmlns="http://www.w3.org/2000/svg" viewBox="0 0 483.07 684.15">
  <defs>
    <style>
      .cls-1 {
        fill: #fff;
        stroke-width: 0px;
      }
    </style>
  </defs>
  <g>
    <path class="cls-1" d="m55.43,615.11c-5.52-3.22-11.72-4.83-18.61-4.83s-13.25,1.61-18.81,4.83c-5.56,3.22-9.96,7.62-13.18,13.18-3.22,5.56-4.83,11.88-4.83,18.94s1.54,13.25,4.64,18.81c3.09,5.56,7.29,9.96,12.58,13.18,5.3,3.22,11.3,4.83,18.01,4.83s12.21-1.52,17.29-4.57c3.79-2.28,6.99-5.16,9.6-8.64v6.98c0,1.68.55,3.03,1.66,4.04,1.1,1.02,2.45,1.52,4.04,1.52,1.68,0,3.05-.51,4.11-1.52,1.06-1.01,1.59-2.36,1.59-4.04v-30.6c-.09-7.06-1.74-13.38-4.97-18.94-3.22-5.56-7.6-9.96-13.11-13.18Zm3.71,45.76c-2.25,4.06-5.3,7.26-9.14,9.6-3.84,2.34-8.24,3.51-13.18,3.51s-9.25-1.17-13.18-3.51c-3.93-2.34-7.04-5.54-9.34-9.6-2.3-4.06-3.44-8.61-3.44-13.64s1.15-9.69,3.44-13.71c2.3-4.02,5.41-7.22,9.34-9.6,3.93-2.38,8.32-3.58,13.18-3.58s9.34,1.19,13.18,3.58c3.84,2.38,6.89,5.59,9.14,9.6,2.25,4.02,3.38,8.59,3.38,13.71s-1.13,9.58-3.38,13.64Z"/>
    <path class="cls-1" d="m121.12,642.23l25.78-23.21c1.15-1.06,1.77-2.23,1.85-3.51.09-1.28-.4-2.49-1.46-3.64-1.06-1.15-2.23-1.77-3.51-1.85-1.28-.09-2.5.4-3.64,1.46l-35.76,32.31v-58.4c0-1.59-.51-2.89-1.52-3.91-1.02-1.01-2.36-1.52-4.04-1.52-1.59,0-2.89.51-3.91,1.52-1.02,1.02-1.52,2.32-1.52,3.91v92.59c0,1.59.51,2.89,1.52,3.91,1.01,1.02,2.32,1.52,3.91,1.52,1.68,0,3.02-.51,4.04-1.52,1.01-1.01,1.52-2.32,1.52-3.91v-20.66l8.87-7.99,26.63,32.76c.97,1.24,2.14,1.92,3.51,2.05,1.37.13,2.67-.33,3.91-1.39,1.32-1.06,2.03-2.25,2.12-3.58.09-1.32-.35-2.56-1.32-3.71l-26.97-33.22Z"/>
    <path class="cls-1" d="m213.99,615.11c-5.52-3.22-11.72-4.83-18.61-4.83s-13.25,1.61-18.81,4.83c-5.56,3.22-9.96,7.62-13.18,13.18-3.22,5.56-4.83,11.88-4.83,18.94s1.54,13.25,4.64,18.81c3.09,5.56,7.29,9.96,12.58,13.18,5.3,3.22,11.3,4.83,18.01,4.83s12.21-1.52,17.29-4.57c3.79-2.28,6.99-5.16,9.6-8.64v6.98c0,1.68.55,3.03,1.66,4.04,1.1,1.02,2.45,1.52,4.04,1.52,1.68,0,3.05-.51,4.11-1.52,1.06-1.01,1.59-2.36,1.59-4.04v-30.6c-.09-7.06-1.74-13.38-4.97-18.94-3.22-5.56-7.6-9.96-13.11-13.18Zm3.71,45.76c-2.25,4.06-5.3,7.26-9.14,9.6-3.84,2.34-8.24,3.51-13.18,3.51s-9.25-1.17-13.18-3.51c-3.93-2.34-7.04-5.54-9.34-9.6-2.3-4.06-3.44-8.61-3.44-13.64s1.15-9.69,3.44-13.71c2.3-4.02,5.41-7.22,9.34-9.6,3.93-2.38,8.32-3.58,13.18-3.58s9.34,1.19,13.18,3.58c3.84,2.38,6.89,5.59,9.14,9.6,2.25,4.02,3.38,8.59,3.38,13.71s-1.13,9.58-3.38,13.64Z"/>
    <path class="cls-1" d="m295.32,646.51c-3.84-2.07-9.07-3.69-15.7-4.83-4.86-.88-8.59-1.88-11.19-2.98-2.61-1.1-4.42-2.36-5.43-3.78-1.02-1.41-1.52-3.09-1.52-5.03,0-2.83,1.41-5.14,4.24-6.95,2.83-1.81,6.53-2.72,11.13-2.72,3.62,0,6.84.55,9.67,1.66,2.83,1.11,5.34,2.85,7.55,5.23,1.06,1.15,2.36,1.85,3.91,2.12,1.54.26,2.89,0,4.04-.79,1.32-.79,2.05-1.88,2.19-3.25.13-1.37-.29-2.67-1.26-3.91-2.65-3.36-6.14-6.03-10.46-8.01-4.33-1.99-9.45-2.98-15.37-2.98-4.68,0-9.03.75-13.05,2.25-4.02,1.5-7.26,3.75-9.74,6.76-2.47,3-3.71,6.76-3.71,11.26,0,4.95,2.05,9.19,6.16,12.72,4.11,3.53,10.62,6.05,19.54,7.55,6.89,1.15,11.77,2.74,14.64,4.77,2.87,2.03,4.31,4.55,4.31,7.55-.09,3.09-1.57,5.68-4.44,7.75-2.87,2.08-7.35,3.11-13.44,3.11-4.15,0-7.95-.68-11.39-2.05-3.44-1.37-6.14-3.2-8.08-5.5-.97-1.06-2.19-1.68-3.64-1.85-1.46-.18-2.89.26-4.3,1.32-1.24.97-1.94,2.21-2.12,3.71-.18,1.5.27,2.83,1.32,3.97,3.09,3.36,7.22,5.94,12.39,7.75,5.17,1.81,10.48,2.72,15.96,2.72,5.83,0,10.86-.93,15.1-2.78,4.24-1.85,7.53-4.35,9.87-7.48,2.34-3.13,3.51-6.78,3.51-10.93,0-3.36-.82-6.4-2.45-9.14-1.64-2.74-4.37-5.14-8.21-7.22Z"/>
    <path class="cls-1" d="m374.92,614.05c-4.9-2.6-10.44-3.91-16.62-3.91-5.74,0-10.95,1.28-15.63,3.84-3.06,1.67-5.7,3.74-7.95,6.18v-34.53c0-1.77-.51-3.16-1.52-4.17-1.02-1.01-2.36-1.52-4.04-1.52-1.77,0-3.16.51-4.17,1.52-1.02,1.02-1.52,2.41-1.52,4.17v92.19c0,1.68.51,3.03,1.52,4.04,1.01,1.02,2.41,1.52,4.17,1.52,1.68,0,3.02-.51,4.04-1.52,1.01-1.01,1.52-2.36,1.52-4.04v-38.55c0-3.62.97-6.82,2.91-9.6,1.94-2.78,4.57-4.99,7.88-6.62,3.31-1.63,7.04-2.45,11.19-2.45,4.41,0,8.35.86,11.79,2.58,3.44,1.72,6.16,4.28,8.15,7.68,1.99,3.4,2.98,7.79,2.98,13.18v33.78c0,1.59.53,2.91,1.59,3.97,1.06,1.06,2.43,1.59,4.11,1.59,1.59,0,2.91-.53,3.97-1.59,1.06-1.06,1.59-2.38,1.59-3.97v-33.78c0-7.33-1.44-13.51-4.3-18.54-2.87-5.03-6.76-8.85-11.66-11.46Z"/>
    <path class="cls-1" d="m478.11,628.29c-3.22-5.56-7.6-9.96-13.11-13.18-5.52-3.22-11.72-4.83-18.61-4.83s-13.25,1.61-18.81,4.83c-5.56,3.22-9.96,7.62-13.18,13.18-3.22,5.56-4.83,11.88-4.83,18.94s1.54,13.25,4.64,18.81c3.09,5.56,7.29,9.96,12.58,13.18,5.3,3.22,11.3,4.83,18.01,4.83s12.21-1.52,17.29-4.57c3.79-2.28,6.99-5.16,9.6-8.64v6.98c0,1.68.55,3.03,1.66,4.04,1.1,1.02,2.45,1.52,4.04,1.52,1.68,0,3.05-.51,4.11-1.52,1.06-1.01,1.59-2.36,1.59-4.04v-30.6c-.09-7.06-1.74-13.38-4.97-18.94Zm-9.4,32.58c-2.25,4.06-5.3,7.26-9.14,9.6-3.84,2.34-8.24,3.51-13.18,3.51s-9.25-1.17-13.18-3.51c-3.93-2.34-7.04-5.54-9.34-9.6-2.3-4.06-3.44-8.61-3.44-13.64s1.15-9.69,3.44-13.71c2.3-4.02,5.41-7.22,9.34-9.6,3.93-2.38,8.32-3.58,13.18-3.58s9.34,1.19,13.18,3.58c3.84,2.38,6.89,5.59,9.14,9.6,2.25,4.02,3.38,8.59,3.38,13.71s-1.13,9.58-3.38,13.64Z"/>
  </g>
  <g>
    <g>
      <g>
        <path class="cls-1" d="m111.43,213.87c2.44.62,4.01,2.96,3.49,5.22-.42,2.28-2.78,3.82-5.27,3.43-2.49-.39-4.15-2.75-3.67-5.26.56-2.5,3-4.01,5.45-3.38Z"/>
        <path class="cls-1" d="m109.95,226.8c2.38.67,3.93,2.99,3.33,5.25-.56,2.25-2.89,3.79-5.38,3.34-2.46-.45-4.14-2.9-3.49-5.38.3-1.24,1.07-2.22,2.07-2.79,1.02-.58,2.26-.74,3.47-.41Z"/>
        <path class="cls-1" d="m110.04,239.9c2.43.71,3.74,3.01,3.18,5.27-.63,2.26-3.06,3.79-5.52,3.28-2.43-.51-3.97-3.03-3.33-5.49.72-2.47,3.26-3.77,5.67-3.06Z"/>
        <path class="cls-1" d="m111.43,252.7c2.42.62,3.92,2.83,3.32,5.13-.5,2.28-2.88,3.92-5.35,3.49-1.24-.22-2.27-.93-2.93-1.91-.63-.99-.86-2.24-.57-3.47.55-2.47,3.14-3.86,5.54-3.24Z"/>
        <path class="cls-1" d="m114.83,265.47c1.21.33,2.08,1.08,2.66,2.01.57.93.75,2.06.42,3.22-.67,2.31-3.02,3.88-5.52,3.36-2.43-.54-3.97-3.11-3.26-5.54.73-2.45,3.31-3.71,5.7-3.04Z"/>
        <path class="cls-1" d="m119.48,277.88c2.27.57,3.5,2.69,2.97,4.88-.57,2.21-2.82,3.76-5.14,3.27-1.16-.25-2.11-.96-2.71-1.9-.56-.95-.75-2.14-.44-3.28.62-2.29,3.04-3.53,5.31-2.97Z"/>
        <path class="cls-1" d="m125.83,289.08c2.22.68,3.27,2.91,2.57,5.11-.7,2.19-3.04,3.58-5.35,2.92-2.24-.7-3.55-3.19-2.71-5.42.84-2.24,3.35-3.31,5.49-2.6Z"/>
        <path class="cls-1" d="m133.24,300.27c1.95.49,3.17,2.33,2.66,4.39-.49,2.04-2.48,3.43-4.54,2.97-2.07-.45-3.4-2.55-2.8-4.61.57-2.04,2.71-3.21,4.68-2.74Z"/>
        <path class="cls-1" d="m142.09,309.93c.92.22,1.61.81,2.04,1.56.44.73.6,1.66.36,2.61-.47,1.9-2.35,3.15-4.29,2.71-1.95-.44-3.05-2.5-2.5-4.36.56-1.88,2.57-2.96,4.4-2.52Z"/>
        <path class="cls-1" d="m152.04,318.56c1.65.37,2.58,2.07,2.19,3.79-.39,1.71-2.11,2.88-3.83,2.43-1.72-.44-2.79-2.17-2.27-3.9.52-1.72,2.26-2.68,3.92-2.32Z"/>
        <path class="cls-1" d="m163.12,326.05c1.4.33,2.22,1.78,1.86,3.26-.36,1.48-1.82,2.4-3.3,2.03-1.49-.34-2.31-1.92-1.87-3.37.45-1.46,1.94-2.3,3.32-1.92Z"/>
        <path class="cls-1" d="m174.71,331.88c1.16.26,1.9,1.43,1.67,2.65-.23,1.23-1.42,2.09-2.63,1.81-1.22-.27-1.98-1.48-1.69-2.7.29-1.22,1.49-2.01,2.65-1.76Z"/>
        <path class="cls-1" d="m187.24,336.29c.91.23,1.46,1.19,1.23,2.16-.23.96-1.19,1.55-2.14,1.32-.95-.24-1.5-1.2-1.23-2.17.27-.94,1.22-1.53,2.13-1.31Z"/>
        <path class="cls-1" d="m200.02,339.2c.58.15.95.77.82,1.38-.13.61-.73.99-1.33.83-.6-.15-.96-.77-.81-1.38.15-.61.74-.98,1.32-.83Z"/>
        <path class="cls-1" d="m115.14,201.15c2.36.89,3.66,3.38,2.91,5.57-.66,2.22-3.18,3.49-5.61,2.84-2.44-.65-3.82-3.17-3.09-5.62.82-2.43,3.42-3.67,5.78-2.78Z"/>
        <path class="cls-1" d="m120.04,189.15c2.26.98,3.41,3.51,2.57,5.62-.74,2.15-3.26,3.24-5.6,2.48-2.37-.77-3.6-3.28-2.76-5.65.89-2.34,3.53-3.44,5.78-2.46Z"/>
        <path class="cls-1" d="m126.25,177.69c2.12.92,3.19,3.34,2.42,5.35-.74,2.02-3.02,3.05-5.25,2.3-2.21-.74-3.39-3.09-2.6-5.31.81-2.21,3.32-3.25,5.43-2.34Z"/>
        <path class="cls-1" d="m133.68,167.33c1.93.77,2.93,2.97,2.29,4.82-.66,1.83-2.63,2.83-4.65,2.17-1.99-.65-3.13-2.73-2.47-4.74.65-2.02,2.91-3,4.83-2.25Z"/>
        <path class="cls-1" d="m142.23,158.39c1.78.77,2.62,2.85,1.97,4.56-.68,1.69-2.53,2.57-4.37,1.87-1.82-.68-2.82-2.65-2.15-4.49.65-1.86,2.78-2.71,4.54-1.95Z"/>
        <path class="cls-1" d="m152.25,150.07c1.67.69,2.46,2.64,1.86,4.28-.62,1.62-2.36,2.42-4.05,1.79-1.69-.63-2.64-2.48-2.04-4.2.58-1.75,2.56-2.56,4.23-1.87Z"/>
        <path class="cls-1" d="m163,143.4c1.47.55,2.19,2.21,1.7,3.67-.49,1.45-2.01,2.15-3.45,1.67-1.45-.51-2.32-2.1-1.85-3.6.46-1.53,2.13-2.29,3.59-1.74Z"/>
        <path class="cls-1" d="m175.03,138.3c1.16.52,1.66,1.89,1.19,3.05-.47,1.17-1.75,1.64-2.89,1.17-1.14-.48-1.74-1.82-1.29-3.01.45-1.21,1.83-1.71,2.98-1.21Z"/>
        <path class="cls-1" d="m187.1,134.87c.9.39,1.31,1.45.95,2.36-.36.91-1.35,1.32-2.24.94-.88-.36-1.35-1.39-1.01-2.33.34-.95,1.39-1.35,2.29-.97Z"/>
        <path class="cls-1" d="m198.02,133.41c.56.31.76,1.03.46,1.61-.3.58-.99.8-1.54.49-.56-.31-.78-1.03-.48-1.61.3-.58,1.01-.8,1.57-.49Z"/>
      </g>
      <g>
        <path class="cls-1" d="m117.57,233.91c1.12.08,2.08.58,2.74,1.31.72.73,1.16,1.68,1.14,2.71-.04,2.05-1.88,3.76-4.12,3.8-2.23.05-4.02-1.76-3.98-4.03.02-1.13.49-2.13,1.24-2.82.8-.68,1.85-1.05,2.97-.97Z"/>
        <path class="cls-1" d="m118.25,245.42c1.11.1,2.07.61,2.72,1.34.65.73,1.08,1.67,1.01,2.71-.16,2.05-1.95,3.77-4.18,3.77-2.27.02-4.01-1.87-3.9-4.14.03-1.12.59-2.11,1.39-2.77.8-.66,1.85-1,2.96-.91Z"/>
        <path class="cls-1" d="m120.37,256.84c2.25.22,3.8,2,3.63,4.07-.13,2.05-2.01,3.79-4.23,3.75-2.19-.04-4.05-1.96-3.81-4.24.19-2.27,2.18-3.81,4.41-3.59Z"/>
        <path class="cls-1" d="m123.73,267.74c1.11.06,2.04.53,2.72,1.23.69.69,1.08,1.63,1.03,2.68-.07,1.06-.53,2.02-1.25,2.74-.73.72-1.73,1.19-2.85,1.21-2.28.07-4.01-1.87-3.97-4.1.13-2.27,2.11-3.89,4.32-3.76Z"/>
        <path class="cls-1" d="m128.8,278.3c2.22.17,3.69,1.94,3.57,4.03-.17,2.11-2.01,3.91-4.23,3.85-2.22-.06-4.01-2.02-3.77-4.28.2-2.24,2.22-3.77,4.43-3.6Z"/>
        <path class="cls-1" d="m134.93,288.33c2.06.12,3.55,1.73,3.4,3.76-.1,2-1.8,3.72-3.92,3.7-2.13-.01-3.74-1.91-3.61-3.98.19-2.12,2.1-3.61,4.13-3.48Z"/>
        <path class="cls-1" d="m142.35,297.01c1.98.28,3.34,1.99,3.07,4.04-.28,2.05-2.09,3.64-4.18,3.41-1.04-.11-1.96-.65-2.56-1.42-.58-.8-.86-1.81-.69-2.85.34-2.07,2.35-3.43,4.36-3.18Z"/>
        <path class="cls-1" d="m150.64,305.58c1.82.06,3.09,1.59,3.03,3.4-.09,1.84-1.6,3.37-3.5,3.33-1.89-.04-3.32-1.73-3.18-3.57.16-1.86,1.84-3.22,3.65-3.16Z"/>
        <path class="cls-1" d="m159.89,312.63c1.67.1,2.88,1.51,2.75,3.27-.13,1.75-1.57,3.12-3.32,3-.87-.06-1.65-.47-2.18-1.08-.52-.62-.78-1.47-.68-2.33.21-1.74,1.78-2.99,3.43-2.86Z"/>
        <path class="cls-1" d="m169.93,318.65c.75.05,1.38.42,1.83.96.45.52.7,1.24.65,2.02-.1,1.57-1.42,2.8-3.01,2.72-1.56-.13-2.73-1.54-2.55-3.09.18-1.56,1.59-2.71,3.08-2.6Z"/>
        <path class="cls-1" d="m180.73,323.59c1.27.1,2.19,1.27,2.07,2.62-.11,1.35-1.26,2.35-2.6,2.23-1.34-.12-2.31-1.31-2.12-2.67.18-1.35,1.36-2.27,2.64-2.18Z"/>
        <path class="cls-1" d="m191.69,327.14c1.05.09,1.87.96,1.83,2.09-.04,1.11-.96,2.01-2.07,1.96-1.1-.08-1.93-1.04-1.84-2.15.09-1.11,1.03-1.96,2.08-1.89Z"/>
        <path class="cls-1" d="m203.27,329.34c.83.09,1.44.87,1.36,1.74-.08.88-.84,1.51-1.71,1.42s-1.47-.87-1.36-1.74c.11-.87.87-1.51,1.7-1.42Z"/>
        <path class="cls-1" d="m214.87,330.3c.53.06.93.56.89,1.11-.04.55-.52.96-1.06.9-.54-.06-.94-.56-.88-1.11.06-.56.53-.96,1.06-.9Z"/>
        <path class="cls-1" d="m118.91,222.24c2.2.42,3.71,2.4,3.37,4.42-.08.51-.28.98-.55,1.4-.24.42-.57.79-.96,1.1-.78.6-1.83.94-2.94.83s-2.08-.65-2.75-1.46c-.33-.4-.59-.87-.75-1.38-.13-.51-.15-1.05-.06-1.61.37-2.24,2.45-3.72,4.65-3.3Z"/>
        <path class="cls-1" d="m121.4,211.03c1.07.26,1.93.9,2.46,1.72.27.41.44.85.55,1.33.12.48.15.98.07,1.48-.33,1.99-2.36,3.32-4.53,3-2.17-.32-3.63-2.33-3.25-4.53.33-2.21,2.57-3.53,4.69-3.01Z"/>
        <path class="cls-1" d="m125.13,200.09c1.99.49,3.29,2.46,2.93,4.33-.18.94-.75,1.7-1.54,2.19-.8.49-1.71.75-2.73.58-2.01-.31-3.52-2.24-3.05-4.25.43-2.03,2.41-3.34,4.4-2.85Z"/>
        <path class="cls-1" d="m130.1,189.94c1.82.39,2.99,2.15,2.67,3.85-.27,1.72-1.84,2.89-3.69,2.61-1.83-.27-3.15-1.93-2.88-3.79.21-1.89,2.09-3.06,3.9-2.67Z"/>
        <path class="cls-1" d="m136.22,180.85c1.66.4,2.72,2.09,2.42,3.71-.29,1.62-1.87,2.59-3.58,2.26-1.71-.33-2.86-1.9-2.52-3.58.34-1.68,2.02-2.79,3.67-2.39Z"/>
        <path class="cls-1" d="m143.71,172.07c1.58.36,2.56,1.94,2.27,3.44-.33,1.47-1.69,2.48-3.25,2.19-1.56-.28-2.68-1.76-2.43-3.37.21-1.65,1.84-2.63,3.41-2.27Z"/>
        <path class="cls-1" d="m152.04,164.56c1.35.23,2.25,1.57,2.07,2.93-.18,1.36-1.38,2.24-2.74,2.01-1.36-.23-2.36-1.48-2.17-2.85.19-1.37,1.49-2.33,2.84-2.1Z"/>
        <path class="cls-1" d="m161.7,158.2c1.1.27,1.77,1.39,1.54,2.46-.22,1.09-1.29,1.67-2.34,1.46-1.06-.22-1.81-1.29-1.61-2.41.18-1.15,1.33-1.77,2.42-1.51Z"/>
        <path class="cls-1" d="m171.61,153.18c.85.17,1.38,1.02,1.23,1.88-.15.86-.93,1.41-1.77,1.24-.84-.17-1.42-1-1.28-1.86.14-.86.97-1.43,1.81-1.26Z"/>
        <path class="cls-1" d="m180.82,149.95c.54.16.84.75.69,1.31-.16.56-.71.89-1.24.73-.54-.16-.86-.74-.71-1.31.15-.56.72-.89,1.26-.73Z"/>
      </g>
      <g>
        <path class="cls-1" d="m126.54,250.49c1.95-.18,3.76,1.13,3.97,2.94.28,1.8-1.05,3.57-3,3.94-1.94.37-3.82-.94-4.12-2.93-.25-2,1.15-3.77,3.15-3.95Z"/>
        <path class="cls-1" d="m128.87,260.47c1.95-.14,3.72,1.17,3.87,3.01.19,1.82-1.14,3.58-3.11,3.91-1.94.32-3.84-1.05-4.02-3.06-.23-2,1.26-3.71,3.25-3.85Z"/>
        <path class="cls-1" d="m132.41,270.17c1.99-.11,3.57,1.25,3.75,3.07.13,1.84-1.26,3.62-3.23,3.9-1.94.27-3.74-1.19-3.93-3.19-.12-2.02,1.42-3.66,3.4-3.78Z"/>
        <path class="cls-1" d="m136.84,279.3c1.97-.19,3.65,1.06,3.83,2.92.23,1.82-1.09,3.68-3.04,4.02-.98.17-1.93-.09-2.68-.64-.74-.56-1.23-1.43-1.35-2.42-.25-1.98,1.3-3.69,3.25-3.88Z"/>
        <path class="cls-1" d="m142.75,287.86c1.92-.12,3.55,1.15,3.68,3.05.13,1.88-1.19,3.68-3.18,3.96-1.96.26-3.77-1.25-3.91-3.23-.11-2.01,1.47-3.64,3.41-3.78Z"/>
        <path class="cls-1" d="m149.53,295.8c.91-.1,1.74.16,2.36.68.63.5,1.07,1.23,1.16,2.13.17,1.79-1.07,3.55-2.91,3.81-.92.13-1.82-.14-2.51-.68-.69-.54-1.13-1.38-1.22-2.31-.16-1.87,1.3-3.44,3.13-3.63Z"/>
        <path class="cls-1" d="m157.26,302.35c1.83-.12,3.19,1.28,3.29,3.07.08,1.82-1.27,3.48-3.16,3.62-1.87.13-3.48-1.41-3.49-3.26.02-1.89,1.57-3.36,3.36-3.43Z"/>
        <path class="cls-1" d="m165.79,308.59c1.59-.21,2.97.85,3.17,2.51.22,1.6-.89,3.22-2.53,3.44-1.64.21-3.22-.94-3.34-2.64-.14-1.67,1.13-3.12,2.7-3.31Z"/>
        <path class="cls-1" d="m174.98,313.28c1.46-.13,2.75.87,2.92,2.42.17,1.54-.87,2.98-2.42,3.17-1.57.23-2.95-.99-3.05-2.53-.1-1.55,1.08-2.9,2.55-3.06Z"/>
        <path class="cls-1" d="m184.71,316.93c1.32-.16,2.47.84,2.65,2.2.17,1.37-.78,2.7-2.17,2.86-1.39.14-2.64-.88-2.74-2.26-.1-1.39.94-2.63,2.26-2.79Z"/>
        <path class="cls-1" d="m194.95,319.45c1.13-.13,2.12.74,2.25,1.93.13,1.2-.71,2.26-1.9,2.38-.59.06-1.15-.13-1.57-.48-.41-.37-.68-.9-.72-1.5-.06-1.21.81-2.2,1.94-2.33Z"/>
        <path class="cls-1" d="m205.11,320.73c.93-.1,1.79.55,1.94,1.53.15.97-.51,1.92-1.49,2.04-.97.12-1.86-.59-1.96-1.57-.1-.98.58-1.88,1.51-2Z"/>
        <path class="cls-1" d="m215.6,320.78c.74-.06,1.4.53,1.47,1.3.07.78-.5,1.46-1.26,1.52-.77.06-1.42-.52-1.46-1.3-.04-.78.52-1.46,1.26-1.52Z"/>
        <path class="cls-1" d="m225.9,319.8c.47-.03.9.35.95.84.05.49-.31.92-.8.95-.48.03-.91-.34-.94-.84-.04-.49.32-.92.79-.95Z"/>
        <path class="cls-1" d="m125.91,240.07c1.96.02,3.62,1.52,3.65,3.35.08,1.82-1.42,3.43-3.4,3.6-1.97.16-3.69-1.33-3.79-3.35-.04-2.01,1.53-3.63,3.54-3.6Z"/>
        <path class="cls-1" d="m126.29,229.87c1.93.11,3.48,1.67,3.44,3.46,0,1.79-1.52,3.29-3.48,3.35-1.95.07-3.55-1.46-3.57-3.43.05-1.97,1.66-3.49,3.61-3.38Z"/>
        <path class="cls-1" d="m127.72,219.7c1.82.09,3.28,1.58,3.28,3.28,0,1.7-1.39,3.09-3.24,3.15-1.83.06-3.36-1.35-3.4-3.2,0-1.84,1.54-3.31,3.35-3.22Z"/>
        <path class="cls-1" d="m130.28,209.99c1.64.02,2.99,1.35,3.05,2.9.03,1.54-1.15,2.83-2.81,2.91-1.65.08-3.07-1.13-3.16-2.8-.07-1.66,1.29-3.03,2.91-3.01Z"/>
        <path class="cls-1" d="m134.01,200.99c1.52.06,2.74,1.34,2.75,2.79-.01,1.44-1.13,2.61-2.67,2.62-1.53.02-2.83-1.14-2.86-2.69-.06-1.55,1.27-2.78,2.78-2.73Z"/>
        <path class="cls-1" d="m138.98,192.01c1.42.03,2.56,1.24,2.59,2.61.01,1.36-1.04,2.45-2.46,2.48-1.42.02-2.65-1.06-2.7-2.5-.07-1.45,1.15-2.61,2.57-2.59Z"/>
        <path class="cls-1" d="m144.98,184.05c1.23-.01,2.24,1.01,2.29,2.21.05,1.2-.86,2.15-2.06,2.2-1.21.04-2.3-.88-2.38-2.12-.1-1.25.92-2.29,2.15-2.3Z"/>
        <path class="cls-1" d="m152.43,176.92c1,.06,1.75.94,1.72,1.92-.02.99-.84,1.68-1.8,1.66-.97-.04-1.79-.85-1.78-1.86,0-1.02.88-1.77,1.87-1.72Z"/>
        <path class="cls-1" d="m160.44,171.11c.77.05,1.36.73,1.33,1.5-.03.77-.65,1.33-1.41,1.29-.75-.03-1.37-.67-1.37-1.46,0-.8.67-1.38,1.44-1.33Z"/>
        <path class="cls-1" d="m168.2,167.18c.5.09.83.58.75,1.09-.08.51-.53.85-1.03.76-.49-.09-.84-.57-.77-1.08.07-.51.55-.85,1.05-.77Z"/>
      </g>
      <g>
        <path class="cls-1" d="m136.45,263.72c1.73-.44,3.41.49,3.87,2.05.54,1.53-.38,3.27-2.05,3.88-1.67.6-3.5-.29-4.09-1.99-.5-1.73.56-3.5,2.27-3.94Z"/>
        <path class="cls-1" d="m139.85,272.21c1.73-.41,3.44.51,3.83,2.1.46,1.56-.49,3.31-2.17,3.88-1.65.56-3.54-.37-3.98-2.12-.46-1.74.59-3.45,2.32-3.86Z"/>
        <path class="cls-1" d="m144.36,280.24c.86-.2,1.7-.05,2.36.34.67.38,1.2.99,1.39,1.8.37,1.61-.55,3.36-2.25,3.9-1.71.56-3.46-.5-3.94-2.22-.42-1.76.72-3.44,2.44-3.83Z"/>
        <path class="cls-1" d="m149.62,287.6c1.73-.49,3.34.4,3.82,1.97.48,1.57-.4,3.41-2.06,4.01-1.65.6-3.55-.32-4.02-2.07-.5-1.73.55-3.43,2.26-3.9Z"/>
        <path class="cls-1" d="m156.14,294.2c1.66-.4,3.32.43,3.71,2.09.44,1.6-.45,3.42-2.14,3.97-1.71.58-3.49-.51-3.96-2.21-.42-1.75.72-3.44,2.4-3.86Z"/>
        <path class="cls-1" d="m163.36,300.07c.79-.24,1.54-.12,2.18.21.64.32,1.14.91,1.36,1.68.44,1.55-.36,3.3-1.93,3.82-1.56.51-3.35-.36-3.76-2.02-.44-1.62.59-3.24,2.15-3.7Z"/>
        <path class="cls-1" d="m171.21,304.55c1.57-.38,3.01.59,3.39,2.15.37,1.59-.54,3.27-2.17,3.69-1.64.46-3.28-.68-3.6-2.28-.3-1.65.81-3.18,2.38-3.56Z"/>
        <path class="cls-1" d="m179.72,308.62c1.37-.48,2.74.28,3.2,1.67.45,1.37-.24,2.95-1.65,3.45-1.4.45-2.97-.32-3.36-1.76-.39-1.45.47-2.92,1.82-3.35Z"/>
        <path class="cls-1" d="m188.56,311.21c1.26-.36,2.56.3,2.96,1.64.4,1.32-.27,2.75-1.6,3.17-1.33.45-2.75-.37-3.09-1.71-.34-1.34.47-2.72,1.73-3.1Z"/>
        <path class="cls-1" d="m197.7,312.81c1.13-.34,2.31.33,2.68,1.5.37,1.18-.25,2.48-1.44,2.87-1.19.35-2.46-.35-2.77-1.55-.31-1.2.4-2.46,1.53-2.81Z"/>
        <path class="cls-1" d="m207.1,313.37c.97-.29,1.98.31,2.28,1.34.3,1.03-.26,2.1-1.29,2.39-1.02.3-2.08-.31-2.33-1.37-.25-1.05.36-2.06,1.33-2.36Z"/>
        <path class="cls-1" d="m216.23,312.88c.8-.23,1.66.19,1.94,1.03.28.83-.15,1.77-.98,2.03-.84.25-1.72-.23-1.97-1.08-.25-.85.21-1.74,1.01-1.99Z"/>
        <path class="cls-1" d="m225.46,311.29c.64-.17,1.31.25,1.49.92.18.67-.21,1.36-.87,1.53s-1.33-.24-1.49-.92.23-1.36.87-1.53Z"/>
        <path class="cls-1" d="m234.36,308.84c.41-.1.84.17.96.59.12.43-.13.85-.55.96s-.85-.16-.96-.59c-.11-.43.14-.86.55-.95Z"/>
        <path class="cls-1" d="m134.39,254.64c1.75-.25,3.43.84,3.73,2.44.31,1.6-.86,3.24-2.55,3.66-1.76.43-3.42-.66-3.76-2.43-.34-1.77.82-3.41,2.57-3.66Z"/>
        <path class="cls-1" d="m133.36,245.59c1.73-.17,3.26.99,3.46,2.58.3,1.58-.84,3.1-2.55,3.43-1.71.33-3.35-.79-3.66-2.53-.28-1.74,1.05-3.31,2.75-3.48Z"/>
        <path class="cls-1" d="m133.18,236.42c1.61-.18,3.12.94,3.37,2.44.25,1.5-.86,2.92-2.47,3.22-1.62.3-3.13-.72-3.38-2.35-.25-1.63.87-3.13,2.48-3.31Z"/>
        <path class="cls-1" d="m134.11,227.52c1.46-.21,2.82.77,3.06,2.12.23,1.35-.57,2.66-2.03,2.96-1.44.3-2.87-.57-3.19-2.03-.08-.36-.09-.72-.02-1.06.08-.34.24-.65.44-.93.41-.56,1.03-.95,1.76-1.06Z"/>
        <path class="cls-1" d="m136.09,219.06c1.34-.17,2.6.78,2.84,2.06.24,1.28-.66,2.45-2.02,2.69-1.36.23-2.65-.6-2.87-1.95-.22-1.34.71-2.63,2.05-2.8Z"/>
        <path class="cls-1" d="m139.13,210.43c1.27-.18,2.45.7,2.66,1.9.17,1.18-.52,2.33-1.77,2.56-1.24.23-2.48-.54-2.76-1.8-.13-.63-.02-1.26.33-1.74.36-.48.9-.82,1.54-.91Z"/>
        <path class="cls-1" d="m143.16,202.51c1.07-.21,2.12.52,2.37,1.58.25,1.06-.39,2.04-1.47,2.26-1.08.22-2.17-.42-2.42-1.49-.25-1.06.45-2.15,1.52-2.36Z"/>
        <path class="cls-1" d="m148.51,195.04c.9-.1,1.7.54,1.83,1.4.13.86-.48,1.6-1.31,1.75-.85.13-1.7-.45-1.87-1.34-.2-.91.45-1.71,1.35-1.81Z"/>
        <path class="cls-1" d="m154.51,188.58c.68-.1,1.31.38,1.43,1.07.12.69-.31,1.3-.98,1.4-.67.1-1.33-.36-1.46-1.04-.13-.68.34-1.33,1.01-1.43Z"/>
        <path class="cls-1" d="m160.54,183.71c.45-.02.82.34.85.81.03.46-.3.85-.74.87-.44.02-.84-.33-.87-.8-.03-.46.31-.86.76-.88Z"/>
      </g>
      <g>
        <path class="cls-1" d="m147.55,274.19c1.43-.67,3.08-.15,3.72,1.15.73,1.25.22,2.93-1.14,3.73-1.36.8-3.11.33-3.91-1.06-.7-1.44-.09-3.16,1.33-3.83Z"/>
        <path class="cls-1" d="m151.92,281.06c1.44-.63,3.09-.12,3.7,1.21.64,1.29.12,2.98-1.26,3.75-1.35.76-3.17.26-3.83-1.21-.7-1.45-.05-3.11,1.4-3.75Z"/>
        <path class="cls-1" d="m157.19,287.34c1.45-.62,3-.06,3.63,1.25.59,1.34.06,3.04-1.32,3.79-1.39.76-3.11.14-3.82-1.29-.64-1.48.06-3.13,1.5-3.75Z"/>
        <path class="cls-1" d="m163,292.91c1.42-.7,3-.23,3.67,1.09.68,1.29.22,3.04-1.13,3.84-1.35.81-3.15.3-3.86-1.15-.74-1.41-.07-3.1,1.33-3.79Z"/>
        <path class="cls-1" d="m169.8,297.6c1.39-.63,2.96-.15,3.59,1.22.63,1.36.16,3.07-1.23,3.84-1.38.75-3.15.14-3.82-1.29-.65-1.47.06-3.12,1.46-3.77Z"/>
        <path class="cls-1" d="m177.07,301.56c.65-.33,1.34-.37,1.94-.17.61.2,1.14.61,1.46,1.25.64,1.28.21,2.94-1.08,3.65-.65.36-1.39.41-2.06.21-.67-.2-1.23-.7-1.56-1.37-.65-1.34-.01-2.92,1.29-3.58Z"/>
        <path class="cls-1" d="m184.67,304.24c1.33-.61,2.73.03,3.31,1.34.57,1.32.04,2.94-1.32,3.58-1.35.61-2.98-.05-3.51-1.44-.52-1.4.21-2.94,1.52-3.49Z"/>
        <path class="cls-1" d="m192.77,306.45c1.12-.58,2.45-.21,3.06.97.61,1.17.24,2.64-.92,3.27-1.16.63-2.65.2-3.22-1.02-.57-1.2-.04-2.63,1.08-3.22Z"/>
        <path class="cls-1" d="m200.93,307.37c1.05-.52,2.29-.1,2.85.99.56,1.09.18,2.45-.92,3.04-1.1.59-2.46.07-2.97-1.03-.51-1.12,0-2.46,1.04-2.99Z"/>
        <path class="cls-1" d="m209.18,307.39c.94-.5,2.07-.07,2.58.91.51.98.17,2.23-.83,2.71-.99.49-2.21.11-2.67-.92-.46-1.03-.02-2.19.91-2.7Z"/>
        <path class="cls-1" d="m217.51,306.44c.8-.41,1.78-.05,2.2.8.42.85.1,1.88-.76,2.31-.85.44-1.88.01-2.25-.85-.38-.87,0-1.89.81-2.26Z"/>
        <path class="cls-1" d="m225.42,304.56c.66-.35,1.49-.07,1.87.61.38.69.15,1.57-.54,1.92-.69.36-1.54.09-1.89-.62-.35-.7-.09-1.56.56-1.91Z"/>
        <path class="cls-1" d="m233.22,301.67c.53-.25,1.18,0,1.46.55s.05,1.22-.51,1.49c-.55.27-1.21.01-1.46-.56-.25-.56-.02-1.22.51-1.48Z"/>
        <path class="cls-1" d="m240.56,297.99c.34-.16.77,0,.94.34.18.35.04.77-.31.93-.35.16-.77,0-.94-.35-.17-.35-.03-.77.31-.93Z"/>
        <path class="cls-1" d="m144.21,266.6c1.49-.52,3.14.15,3.68,1.5.54,1.35-.2,2.98-1.62,3.63-1.45.66-3.09-.01-3.68-1.5-.59-1.49.13-3.11,1.62-3.63Z"/>
        <path class="cls-1" d="m141.81,258.86c1.48-.44,3.03.32,3.45,1.68.52,1.33-.21,2.85-1.65,3.43-1.44.57-3.06-.13-3.63-1.59-.5-1.48.36-3.07,1.83-3.51Z"/>
        <path class="cls-1" d="m140.12,250.87c1.38-.42,2.89.31,3.36,1.58.47,1.27-.26,2.69-1.62,3.22-1.36.53-2.86-.12-3.35-1.5-.49-1.38.23-2.88,1.61-3.3Z"/>
        <path class="cls-1" d="m139.52,242.92c1.24-.42,2.59.23,3.02,1.37.38,1.15-.1,2.42-1.32,2.92-1.2.5-2.61-.04-3.13-1.26-.51-1.22.21-2.61,1.43-3.02Z"/>
        <path class="cls-1" d="m139.93,235.2c1.15-.36,2.4.29,2.82,1.37.41,1.09-.18,2.25-1.33,2.67-1.15.42-2.42-.12-2.83-1.26-.41-1.14.2-2.42,1.34-2.78Z"/>
        <path class="cls-1" d="m141.33,227.17c1.09-.35,2.25.26,2.62,1.27.19.51.13,1.03-.1,1.48-.19.45-.58.83-1.1,1.02-1.05.39-2.26-.1-2.69-1.17-.48-1.08.21-2.25,1.27-2.6Z"/>
        <path class="cls-1" d="m143.69,219.61c.91-.34,1.93.15,2.31,1.05.38.9-.03,1.86-.94,2.21-.91.35-1.97-.05-2.34-.95-.38-.9.07-1.96.97-2.3Z"/>
        <path class="cls-1" d="m147.33,212.29c.77-.22,1.57.22,1.81.96.25.74-.19,1.48-.92,1.72-.72.24-1.56-.14-1.84-.9-.28-.76.19-1.55.95-1.77Z"/>
        <path class="cls-1" d="m151.65,205.74c.58-.19,1.2.14,1.41.72.21.58-.08,1.19-.65,1.38-.57.19-1.22-.12-1.43-.69-.21-.58.1-1.22.67-1.41Z"/>
        <path class="cls-1" d="m156.2,200.56c.39-.09.78.17.87.57.1.4-.13.79-.51.88-.39.08-.78-.16-.88-.56-.1-.4.14-.8.53-.89Z"/>
      </g>
      <g>
        <path class="cls-1" d="m158.28,281.32c1.16-.81,2.69-.6,3.45.45.83,1,.63,2.55-.45,3.46-1.08.91-2.69.75-3.6-.34-.84-1.16-.56-2.76.6-3.57Z"/>
        <path class="cls-1" d="m163.16,286.71c1.18-.77,2.71-.56,3.44.52.76,1.05.54,2.61-.56,3.49-1.08.87-2.75.7-3.56-.5-.83-1.17-.51-2.73.68-3.52Z"/>
        <path class="cls-1" d="m168.73,291.47c1.18-.76,2.64-.49,3.39.56.72,1.09.5,2.67-.61,3.54-1.11.87-2.73.58-3.55-.57-.79-1.21-.41-2.77.77-3.53Z"/>
        <path class="cls-1" d="m174.68,295.52c1.15-.83,2.61-.65,3.39.41.79,1.03.65,2.65-.42,3.55-1.07.92-2.73.73-3.58-.43-.86-1.13-.53-2.73.6-3.53Z"/>
        <path class="cls-1" d="m181.37,298.62c1.13-.76,2.58-.59,3.34.52.76,1.1.62,2.68-.49,3.57-1.1.88-2.75.6-3.56-.55-.8-1.19-.42-2.75.71-3.55Z"/>
        <path class="cls-1" d="m188.38,300.99c.52-.39,1.12-.54,1.68-.45.56.08,1.1.35,1.48.87.76,1.02.65,2.55-.37,3.39-1.02.84-2.59.66-3.37-.45-.78-1.08-.47-2.57.57-3.36Z"/>
        <path class="cls-1" d="m195.48,302.14c1.07-.75,2.41-.4,3.13.65.72,1.07.51,2.58-.58,3.36-1.09.76-2.64.43-3.32-.69-.69-1.15-.28-2.62.78-3.31Z"/>
        <path class="cls-1" d="m202.96,302.78c.89-.71,2.12-.58,2.85.36.72.91.65,2.28-.27,3.02-.91.74-2.3.61-3-.37-.7-.96-.47-2.31.42-3Z"/>
        <path class="cls-1" d="m210.27,302.25c.84-.62,1.99-.47,2.66.4.67.87.56,2.13-.31,2.82-.87.72-2.15.47-2.78-.42-.63-.9-.41-2.16.42-2.8Z"/>
        <path class="cls-1" d="m217.53,300.9c.74-.59,1.81-.39,2.42.37.61.77.51,1.94-.28,2.53-.79.6-1.93.44-2.49-.37-.57-.82-.38-1.93.36-2.53Z"/>
        <path class="cls-1" d="m224.69,298.71c.64-.49,1.56-.33,2.07.35.51.68.39,1.64-.29,2.15-.67.52-1.64.32-2.12-.38-.48-.71-.31-1.65.34-2.12Z"/>
        <path class="cls-1" d="m231.35,295.79c.53-.4,1.3-.3,1.74.23.44.54.39,1.36-.17,1.78-.55.43-1.34.32-1.76-.24-.42-.56-.33-1.36.19-1.77Z"/>
        <path class="cls-1" d="m237.77,292.01c.43-.3,1.04-.19,1.37.26.33.45.23,1.07-.22,1.39-.44.32-1.06.2-1.37-.27-.31-.46-.21-1.08.22-1.38Z"/>
        <path class="cls-1" d="m243.69,287.66c.28-.19.67-.12.88.16.21.28.15.67-.14.87s-.68.12-.88-.17-.14-.67.13-.87Z"/>
        <path class="cls-1" d="m154.18,275.14c1.23-.69,2.79-.35,3.47.76.69,1.1.28,2.66-.86,3.44-1.18.81-2.72.46-3.48-.75-.75-1.22-.36-2.76.88-3.45Z"/>
        <path class="cls-1" d="m150.86,268.7c1.24-.62,2.71-.19,3.29.94.67,1.09.26,2.54-.92,3.27-1.18.73-2.71.36-3.44-.84-.68-1.22-.16-2.76,1.07-3.37Z"/>
        <path class="cls-1" d="m148.14,261.93c1.15-.58,2.59-.17,3.2.87.61,1.04.19,2.41-.93,3.09-1.12.68-2.53.34-3.18-.8-.64-1.14-.24-2.58.91-3.16Z"/>
        <path class="cls-1" d="m146.38,255.02c1.03-.56,2.32-.2,2.87.74.51.95.29,2.14-.71,2.77-.98.62-2.3.37-2.95-.63-.65-1-.22-2.33.79-2.88Z"/>
        <path class="cls-1" d="m145.56,248.16c.95-.49,2.16-.11,2.69.78.53.89.18,2.01-.77,2.55-.95.54-2.15.27-2.68-.68-.53-.95-.19-2.16.76-2.65Z"/>
        <path class="cls-1" d="m145.59,240.87c.91-.47,2.02-.11,2.5.73.24.42.27.89.13,1.32-.1.43-.38.81-.81,1.06-.86.5-2,.25-2.55-.63-.58-.88-.15-2.02.73-2.48Z"/>
        <path class="cls-1" d="m146.56,233.86c.75-.44,1.72-.15,2.19.58.47.73.25,1.64-.5,2.08-.75.44-1.74.24-2.21-.5-.47-.74-.23-1.74.52-2.17Z"/>
        <path class="cls-1" d="m148.7,226.87c.64-.31,1.42-.03,1.74.58.32.62.06,1.33-.57,1.65-.6.32-1.39.1-1.75-.53-.35-.62-.06-1.39.58-1.7Z"/>
        <path class="cls-1" d="m151.55,220.46c.48-.25,1.08-.05,1.35.43.27.49.11,1.06-.37,1.31-.48.25-1.09.08-1.36-.4-.27-.48-.09-1.09.39-1.34Z"/>
        <path class="cls-1" d="m154.81,215.23c.33-.13.71.04.86.38.15.34,0,.72-.33.85-.33.13-.72-.03-.86-.37-.15-.34,0-.73.33-.86Z"/>
      </g>
      <g>
        <path class="cls-1" d="m169.67,285.35c.89-.9,2.24-.93,3.09-.15.88.75.94,2.14.14,3.09-.8.96-2.23,1.07-3.19.26-.92-.86-.92-2.31-.05-3.2Z"/>
        <path class="cls-1" d="m174.77,289.29c.91-.86,2.28-.9,3.08-.07.83.79.87,2.19.05,3.13-.81.92-2.29,1.03-3.18.11-.9-.9-.86-2.31.05-3.17Z"/>
        <path class="cls-1" d="m180.36,292.59c.91-.84,2.23-.84,3.04-.02.79.85.85,2.24.01,3.18-.84.94-2.29.92-3.19.04-.87-.93-.78-2.35.13-3.2Z"/>
        <path class="cls-1" d="m186.16,295.21c.88-.91,2.18-.96,3.02-.16.85.78.97,2.21.18,3.17-.79.96-2.27,1.06-3.18.17-.92-.86-.88-2.29-.01-3.17Z"/>
        <path class="cls-1" d="m192.47,296.9c.87-.84,2.16-.91,3-.05.84.83.95,2.24.11,3.19-.83.95-2.31.94-3.19.07-.88-.92-.79-2.34.08-3.2Z"/>
        <path class="cls-1" d="m198.95,297.9c.39-.42.9-.64,1.4-.65.5-.03,1.01.14,1.43.53.82.78.96,2.13.19,3.01-.76.89-2.16.97-3,.12-.84-.83-.8-2.17-.01-3.01Z"/>
        <path class="cls-1" d="m205.32,297.82c.82-.81,2.04-.71,2.83.09.79.83.84,2.18,0,3.02-.84.84-2.23.77-3-.1-.77-.91-.64-2.24.17-3.01Z"/>
        <path class="cls-1" d="m211.93,297.25c.67-.76,1.76-.83,2.54-.12.77.68.91,1.89.22,2.68-.69.78-1.91.88-2.67.13-.76-.73-.76-1.94-.09-2.68Z"/>
        <path class="cls-1" d="m218.23,295.67c.64-.67,1.67-.72,2.38-.06.72.66.81,1.77.16,2.51-.65.75-1.81.74-2.49.06-.69-.69-.68-1.82-.05-2.51Z"/>
        <path class="cls-1" d="m224.36,293.4c.56-.63,1.52-.61,2.17-.04.64.58.74,1.61.14,2.25-.6.64-1.62.67-2.23.05-.62-.63-.63-1.63-.07-2.26Z"/>
        <path class="cls-1" d="m230.28,290.4c.49-.52,1.31-.52,1.86,0,.55.52.59,1.37.07,1.92-.51.56-1.38.53-1.91-.01-.52-.55-.52-1.39-.02-1.9Z"/>
        <path class="cls-1" d="m235.65,286.85c.4-.43,1.09-.46,1.55-.06.47.4.54,1.13.12,1.58-.42.46-1.12.48-1.58.05-.45-.43-.49-1.13-.1-1.57Z"/>
        <path class="cls-1" d="m240.68,282.59c.33-.33.88-.32,1.23.02.35.34.36.9.02,1.24-.34.34-.89.33-1.23-.03-.33-.35-.34-.91-.02-1.24Z"/>
        <path class="cls-1" d="m245.19,277.9c.21-.21.57-.21.79.01.22.21.23.56.01.78-.22.21-.57.21-.79-.01-.22-.22-.23-.57-.01-.78Z"/>
        <path class="cls-1" d="m165.12,280.63c.96-.8,2.36-.75,3.13.1.77.86.68,2.27-.19,3.13-.9.9-2.31.86-3.15-.09-.85-.94-.75-2.35.21-3.15Z"/>
        <path class="cls-1" d="m161.15,275.58c.98-.75,2.31-.6,3.03.26.76.84.64,2.18-.26,3.01-.9.83-2.3.76-3.13-.17-.82-.93-.6-2.37.36-3.1Z"/>
        <path class="cls-1" d="m157.65,270.15c.9-.7,2.22-.59,2.92.21.71.8.56,2.07-.29,2.84-.86.78-2.15.73-2.9-.16-.75-.89-.64-2.2.26-2.9Z"/>
        <path class="cls-1" d="m154.94,264.45c.8-.66,1.98-.57,2.62.16.62.73.63,1.81-.14,2.53-.75.71-1.94.71-2.67-.05-.76-.74-.59-1.99.19-2.64Z"/>
        <path class="cls-1" d="m153.07,258.62c.75-.59,1.86-.46,2.47.23.61.69.49,1.71-.24,2.35-.74.63-1.82.6-2.44-.14-.62-.73-.53-1.85.22-2.44Z"/>
        <path class="cls-1" d="m151.86,252.28c.71-.56,1.74-.43,2.29.22.28.33.37.73.34,1.12-.02.39-.2.77-.53,1.06-.67.58-1.7.55-2.32-.12-.65-.67-.48-1.73.22-2.28Z"/>
        <path class="cls-1" d="m151.55,246.02c.58-.5,1.47-.41,2,.15.53.56.48,1.39-.1,1.89-.58.51-1.48.5-2-.07-.53-.57-.48-1.47.1-1.97Z"/>
        <path class="cls-1" d="m152.3,239.59c.51-.37,1.23-.25,1.61.23.38.49.25,1.15-.23,1.52-.47.37-1.2.31-1.61-.18-.41-.49-.27-1.21.24-1.58Z"/>
        <path class="cls-1" d="m153.79,233.55c.38-.3.93-.21,1.24.17.31.38.26.91-.12,1.2-.38.29-.94.23-1.25-.14-.31-.38-.25-.93.13-1.23Z"/>
        <path class="cls-1" d="m155.84,228.49c.27-.17.62-.07.8.2.18.28.11.63-.16.79s-.63.08-.81-.19c-.18-.27-.11-.63.16-.8Z"/>
      </g>
      <g>
        <path class="cls-1" d="m217.97,11.33c.48,5.34-3.36,10.18-8.61,10.8-5.21.85-10.26-2.73-11.26-7.99-.99-5.25,2.84-10.31,8.57-11.21,5.76-.7,10.81,3.07,11.29,8.4Z"/>
        <path class="cls-1" d="m189.13,17.92c.09,1.33-.1,2.62-.52,3.8-.41,1.21-1.03,2.33-1.82,3.29-1.59,1.93-3.86,3.25-6.52,3.51-.66.07-1.32.06-1.97,0-.64-.04-1.26-.14-1.86-.29-1.21-.31-2.34-.86-3.34-1.6-2-1.47-3.47-3.69-3.86-6.35-.81-5.27,3.22-10.49,9-11.04,2.86-.32,5.52.48,7.48,2.04,1.97,1.6,3.24,3.97,3.41,6.63Z"/>
        <path class="cls-1" d="m161.08,28c.2,5.41-3.82,9.79-9.04,10.42-2.65.27-5.19-.56-7.18-2.09-1.99-1.54-3.38-3.75-3.7-6.45-.3-2.65.6-5.21,2.31-7.2,1.71-1.97,4.2-3.45,7.05-3.71,5.77-.45,10.37,3.65,10.57,9.03Z"/>
        <path class="cls-1" d="m134.69,40.71c.17,2.62-.64,5.23-2.2,7.15-1.54,1.95-3.81,3.23-6.46,3.58-5.2.8-10.32-2.71-11.1-8.04-.38-2.67.43-5.32,2.04-7.43,1.66-2.04,4.16-3.48,6.97-3.87,5.63-.83,10.39,3.31,10.74,8.61Z"/>
        <path class="cls-1" d="m109.85,57.66c.05,1.34-.16,2.62-.59,3.8-.43,1.17-1.09,2.22-1.87,3.19-1.58,1.91-3.86,3.18-6.54,3.44-2.7.23-5.22-.5-7.18-2.01-1.96-1.51-3.35-3.78-3.63-6.52-.27-2.73.73-5.3,2.46-7.33.87-1.01,1.92-1.88,3.11-2.53.59-.32,1.21-.6,1.86-.81.67-.19,1.36-.31,2.06-.37,5.67-.46,10.11,3.76,10.32,9.13Z"/>
        <path class="cls-1" d="m86.75,77.07c.17,2.54-.66,4.89-2.17,6.66-.38.44-.8.84-1.25,1.22-.44.38-.91.73-1.42,1.02-1.02.59-2.18.99-3.43,1.15-5.01.63-9.75-2.75-10.27-7.89-.26-2.57.6-5.09,2.16-7.07,1.62-1.92,3.99-3.24,6.59-3.52,5.23-.57,9.46,3.36,9.8,8.44Z"/>
        <path class="cls-1" d="m67.49,99.19c0,2.54-.93,4.85-2.55,6.53-1.6,1.69-3.91,2.74-6.38,2.93-5.02.33-9.45-3.39-9.61-8.71-.04-2.62,1.07-5.06,2.78-6.9,1.74-1.82,4.04-3.06,6.69-3.06,5.22-.07,9.14,4.21,9.06,9.2Z"/>
        <path class="cls-1" d="m49.18,123.67c.09,1.13-.08,2.19-.38,3.21-.3,1.02-.78,1.97-1.43,2.79-1.29,1.64-3.21,2.79-5.47,3.1-4.53.62-8.7-2.4-9.13-7.07-.22-2.33.53-4.61,1.89-6.38.66-.89,1.54-1.62,2.53-2.16.98-.54,2.07-.9,3.22-1.01,4.59-.47,8.43,3.04,8.77,7.51Z"/>
        <path class="cls-1" d="m35.2,150.04c.16,2.11-.59,4.04-1.83,5.56-1.2,1.53-2.99,2.6-5.09,2.86-4.2.54-8.01-2.41-8.4-6.86-.24-2.23.57-4.32,1.9-5.91,1.33-1.59,3.21-2.67,5.33-2.85,4.22-.34,7.79,3,8.09,7.2Z"/>
        <path class="cls-1" d="m24.29,177.99c.37,3.8-2.45,7.12-6.19,7.65-3.73.52-7.27-2.2-7.53-6.18-.28-3.98,2.5-7.63,6.36-7.9,3.85-.28,6.96,2.63,7.36,6.43Z"/>
        <path class="cls-1" d="m16.74,207.49c.32,3.25-2.03,6.13-5.26,6.51-3.23.38-6.09-2.02-6.38-5.45-.36-3.44,2.27-6.41,5.49-6.61,3.24-.2,5.97,2.33,6.16,5.56Z"/>
        <path class="cls-1" d="m13.14,236.8c.16,1.34-.22,2.63-.99,3.64-.73,1.01-1.82,1.75-3.14,1.97-2.62.44-5.21-1.45-5.49-4.25-.33-2.81,1.56-5.37,4.22-5.68,2.65-.31,5.07,1.64,5.4,4.32Z"/>
        <path class="cls-1" d="m13.34,267.03c.21,2.13-1.32,4.04-3.41,4.26-2.1.22-3.97-1.39-4.19-3.6-.22-2.21,1.31-4.11,3.44-4.26,2.07-.14,3.95,1.47,4.16,3.6Z"/>
        <path class="cls-1" d="m16.93,296.64c.13,1.36-.83,2.6-2.15,2.76-1.33.16-2.52-.85-2.66-2.25s.83-2.62,2.16-2.75c1.33-.13,2.52.87,2.65,2.23Z"/>
        <path class="cls-1" d="m248.03,9.58c-.09,5.36-4.44,9.73-9.72,9.81-5.27.28-9.9-3.84-10.33-9.17-.44-5.36,3.91-9.92,9.71-10.22,5.8-.09,10.44,4.23,10.35,9.58Z"/>
        <path class="cls-1" d="m277.45,10.97c-.33,5.23-4.84,9.3-10,9.09-5.19.02-9.47-4.28-9.65-9.49-.17-5.3,4.24-9.53,9.93-9.5,1.41-.01,2.75.33,3.96.87,1.21.54,2.28,1.28,3.16,2.19,1.77,1.8,2.76,4.23,2.61,6.84Z"/>
        <path class="cls-1" d="m306.72,15.62c-.26,4.92-4.57,8.73-9.44,8.55-1.22-.07-2.39-.31-3.46-.75-1.06-.45-2.02-1.1-2.84-1.91-1.63-1.62-2.68-3.86-2.74-6.35-.15-4.97,3.91-8.97,9.24-8.9,2.66-.01,5.03,1.21,6.71,2.9,1.68,1.71,2.64,4,2.52,6.47Z"/>
        <path class="cls-1" d="m334.53,23.7c-.07,4.46-3.89,7.96-8.32,7.91-1.11-.01-2.16-.26-3.13-.67-.97-.38-1.86-.95-2.61-1.65-1.5-1.42-2.48-3.42-2.58-5.66-.22-4.49,3.28-8.21,8.04-8.23,2.38-.05,4.55.95,6.1,2.49,1.56,1.53,2.51,3.59,2.49,5.82Z"/>
        <path class="cls-1" d="m360.15,35.19c-.17,4.16-3.82,7.28-7.95,7.08-1.04-.05-2-.31-2.89-.73-.9-.39-1.7-.94-2.37-1.63-1.35-1.37-2.19-3.26-2.2-5.35-.05-4.18,3.29-7.54,7.67-7.39,4.42.08,7.9,3.88,7.74,8.01Z"/>
        <path class="cls-1" d="m385.57,50.32c-.08,3.92-3.48,6.85-7.36,6.7-1.96-.07-3.64-.96-4.92-2.22-1.28-1.26-2.07-3.02-2.1-4.97-.06-3.91,3.01-7.1,7.08-7,4.1.04,7.38,3.59,7.3,7.49Z"/>
        <path class="cls-1" d="m408,68.26c.06,3.43-2.77,6.05-6.15,6.01-1.69-.03-3.21-.72-4.31-1.83-1.1-1.11-1.87-2.57-1.92-4.27-.13-3.37,2.44-6.23,5.91-6.24,3.51-.07,6.41,2.91,6.47,6.33Z"/>
        <path class="cls-1" d="m428.1,90.08c-.12,2.78-2.52,4.78-5.26,4.56-1.37-.11-2.57-.75-3.41-1.71-.83-.97-1.32-2.24-1.3-3.59.06-2.72,2.31-4.88,5.11-4.73.7.04,1.37.22,1.97.51.59.31,1.12.73,1.55,1.23.88,1,1.39,2.33,1.33,3.72Z"/>
        <path class="cls-1" d="m444.65,113.27c-.07,2.18-1.88,3.78-4.01,3.63-2.13-.14-3.73-1.97-3.68-4.11.02-2.12,1.75-3.81,3.91-3.72,2.19.07,3.83,2.02,3.78,4.2Z"/>
        <path class="cls-1" d="m456.16,135.49c-.18,1.42-1.48,2.34-2.89,2.1-1.4-.24-2.37-1.55-2.19-2.95.19-1.4,1.46-2.38,2.86-2.15,1.4.23,2.39,1.59,2.21,3Z"/>
      </g>
      <g>
        <path class="cls-1" d="m179.74,39.69c.63,2.29.26,4.62-.82,6.52-1.06,1.96-2.8,3.52-5.05,4.23-2.26.66-4.55.53-6.56-.42-1.99-.94-3.67-2.62-4.5-4.85-.83-2.23-.63-4.58.41-6.61,1.04-2.02,2.9-3.76,5.35-4.49,2.44-.77,4.93-.55,6.95.46,2.03,1.06,3.58,2.87,4.21,5.16Z"/>
        <path class="cls-1" d="m155.59,49.88c.57,2.31.15,4.63-.95,6.5-1.11,1.87-2.83,3.48-5.09,4.14-2.24.7-4.62.36-6.59-.57-1.97-.95-3.61-2.64-4.37-4.89-.38-1.13-.51-2.29-.41-3.43.1-1.15.44-2.26,1.01-3.24,1.12-1.99,3.07-3.62,5.5-4.39,1.22-.37,2.42-.54,3.6-.4,1.18.14,2.29.5,3.28,1.05,1.98,1.1,3.45,2.94,4.02,5.25Z"/>
        <path class="cls-1" d="m132.7,63.07c.54,2.34.12,4.68-.99,6.57-.56.95-1.28,1.78-2.16,2.45-.88.66-1.91,1.18-3.01,1.55-4.45,1.37-9.41-1.06-10.84-5.59-.7-2.27-.35-4.67.79-6.71.58-1.01,1.33-1.97,2.28-2.71.96-.73,2.07-1.29,3.3-1.64,4.93-1.4,9.58,1.39,10.64,6.08Z"/>
        <path class="cls-1" d="m111.85,78.54c.63,2.31.24,4.58-.78,6.52-1,1.97-2.71,3.52-4.97,4.26-1.13.37-2.29.49-3.42.42-1.1-.05-2.19-.31-3.19-.77-2-.91-3.66-2.58-4.45-4.85-.39-1.14-.54-2.32-.44-3.48.12-1.14.47-2.25,1.02-3.28,1.1-2.06,3-3.78,5.37-4.61,4.87-1.54,9.63,1.19,10.85,5.78Z"/>
        <path class="cls-1" d="m93.02,97.41c1.12,4.69-1.61,9.16-6.05,10.61-4.52,1.37-9.49-.98-10.83-5.59-.67-2.31-.29-4.76.85-6.84.29-.52.61-1.02,1-1.47.4-.44.83-.86,1.31-1.23.95-.74,2.04-1.32,3.24-1.66,4.81-1.4,9.37,1.51,10.48,6.18Z"/>
        <path class="cls-1" d="m76.15,118.19c.52,2.15.28,4.39-.73,6.2-.98,1.82-2.7,3.23-4.82,3.93-4.2,1.42-8.88-.73-10.24-5.15-.71-2.23-.33-4.53.76-6.48,1.08-1.95,2.87-3.53,5.06-4.23,4.52-1.32,8.89,1.41,9.97,5.73Z"/>
        <path class="cls-1" d="m63.12,140.72c.2,1.1.18,2.19-.04,3.21-.23,1.02-.65,1.98-1.18,2.86-1.08,1.75-2.84,3.09-5.04,3.63-4.39,1.08-8.84-1.44-9.78-6-.46-2.27.02-4.62,1.2-6.51,1.25-1.85,3.15-3.25,5.39-3.73,4.48-.96,8.62,2.13,9.44,6.53Z"/>
        <path class="cls-1" d="m51.09,165.05c1.1,3.9-1.17,7.8-4.89,9.12-3.79,1.29-7.92-.7-9.13-4.73-.64-2.02-.24-4.09.68-5.84.95-1.74,2.5-3.12,4.44-3.71,3.89-1.16,7.8,1.27,8.89,5.15Z"/>
        <path class="cls-1" d="m43.01,190.29c.93,3.63-1.09,7.32-4.73,8.43-3.61,1.11-7.37-.89-8.34-4.69-.49-1.89-.19-3.86.68-5.46.9-1.6,2.44-2.81,4.26-3.29,3.66-.94,7.28,1.4,8.13,5.01Z"/>
        <path class="cls-1" d="m37.77,216.43c.42,1.64.1,3.28-.66,4.65-.73,1.37-1.99,2.47-3.6,2.96-3.22,1-6.62-.86-7.57-4.31-.83-3.43,1.2-7.01,4.45-7.83,3.26-.83,6.55,1.27,7.38,4.53Z"/>
        <path class="cls-1" d="m35.47,243.37c.7,2.81-.98,5.66-3.76,6.44-2.78.78-5.61-.92-6.31-3.88-.71-2.96.97-5.93,3.83-6.56,2.83-.63,5.5,1.19,6.25,3.99Z"/>
        <path class="cls-1" d="m36.29,269.59c.58,2.31-.56,4.73-2.83,5.47-2.24.73-4.73-.58-5.43-2.99-.65-2.41.68-4.91,2.97-5.54,2.29-.63,4.66.75,5.29,3.06Z"/>
        <path class="cls-1" d="m40.46,296.11c.45,1.84-.65,3.71-2.46,4.18-1.81.46-3.66-.71-4.13-2.62s.63-3.78,2.46-4.17c1.83-.4,3.67.78,4.13,2.62Z"/>
        <path class="cls-1" d="m47.34,321.66c.29,1.18-.41,2.39-1.55,2.69-1.14.3-2.31-.44-2.61-1.64-.3-1.21.4-2.4,1.55-2.68s2.32.45,2.61,1.63Z"/>
        <path class="cls-1" d="m205.74,33.63c.38,2.35-.26,4.62-1.53,6.4-1.28,1.75-3.18,3.18-5.49,3.63-1.15.23-2.31.21-3.4,0-1.09-.18-2.13-.58-3.07-1.15-1.88-1.15-3.36-3-3.93-5.3-.58-2.3-.12-4.63,1.13-6.54.63-.95,1.45-1.8,2.43-2.49.99-.65,2.13-1.12,3.39-1.38,2.51-.48,4.96-.06,6.86,1.24,1.91,1.27,3.24,3.24,3.62,5.58Z"/>
        <path class="cls-1" d="m231.67,30.47c.26,2.31-.48,4.51-1.82,6.2-.67.85-1.5,1.54-2.44,2.1-.94.57-2,.97-3.14,1.15-4.54.62-8.9-2.29-9.84-6.87-.45-2.28.1-4.54,1.41-6.33.65-.9,1.5-1.69,2.49-2.3.99-.58,2.13-.98,3.37-1.17,2.48-.34,4.87.19,6.68,1.58,1.81,1.34,3.04,3.33,3.29,5.65Z"/>
        <path class="cls-1" d="m257.94,30.21c.49,4.37-2.7,8.24-6.99,8.84-2.16.34-4.24-.23-5.9-1.42-1.66-1.22-2.91-2.92-3.33-5.09-.87-4.28,2.1-8.55,6.76-9.16,4.67-.74,8.96,2.5,9.46,6.83Z"/>
        <path class="cls-1" d="m283.45,33.15c.6,3.92-2.22,7.53-6.1,8.12-3.89.65-7.6-1.84-8.45-5.76-.42-1.92-.02-3.85,1.02-5.38,1.04-1.51,2.72-2.62,4.79-2.97,4.16-.76,8.14,2.09,8.74,5.99Z"/>
        <path class="cls-1" d="m307.56,39.36c.48,3.67-2.25,6.93-5.88,7.37-1.81.18-3.58-.24-4.96-1.26-1.38-1-2.39-2.54-2.72-4.36-.66-3.66,1.75-7.08,5.6-7.59,1.91-.24,3.82.22,5.25,1.33,1.44,1.09,2.46,2.68,2.7,4.52Z"/>
        <path class="cls-1" d="m332.05,48.71c.53,3.44-1.98,6.52-5.4,6.98-3.4.4-6.58-1.8-7.23-5.22-.64-3.41,1.55-6.67,5.11-7.19,3.58-.58,7,1.99,7.52,5.43Z"/>
        <path class="cls-1" d="m354.43,60.86c.59,2.98-1.45,5.72-4.41,6.21-1.48.25-2.92-.12-4.05-.92-1.14-.8-2.03-1.95-2.35-3.42-.65-2.92,1.15-5.82,4.18-6.38,3.05-.61,6.05,1.52,6.64,4.5Z"/>
        <path class="cls-1" d="m375.45,76.63c.35,2.44-1.4,4.58-3.83,4.84-2.44.28-4.57-1.48-4.97-3.85-.39-2.38,1.21-4.63,3.68-4.95,2.48-.34,4.76,1.54,5.12,3.96Z"/>
        <path class="cls-1" d="m393.76,94.02c.32,1.91-.99,3.61-2.86,3.85-1.88.24-3.59-1.07-3.91-2.95-.34-1.85.87-3.62,2.76-3.9,1.92-.31,3.68,1.1,4,3Z"/>
        <path class="cls-1" d="m407.67,111.28c.09,1.26-.87,2.3-2.13,2.34-1.26.04-2.34-.92-2.43-2.18-.09-1.25.85-2.33,2.1-2.38,1.26-.05,2.36.95,2.46,2.21Z"/>
      </g>
      <g>
        <path class="cls-1" d="m151.06,71.61c1.75,3.78.2,8.44-3.53,10.29-3.66,1.98-8.33.69-10.47-2.95-2.13-3.63-.64-8.43,3.39-10.59,4.08-2.05,8.81-.62,10.61,3.25Z"/>
        <path class="cls-1" d="m131.41,84.13c.42.97.62,1.97.63,2.96.02,1.01-.14,2-.48,2.93-.67,1.86-2,3.44-3.9,4.34-.48.23-.96.4-1.46.52-.48.14-.97.23-1.46.28-.98.09-1.97-.02-2.91-.3-1.87-.56-3.56-1.82-4.55-3.68-1.99-3.69-.4-8.64,3.74-10.58,2.03-1,4.22-1.11,6.09-.48,1.88.66,3.46,2.08,4.3,4.01Z"/>
        <path class="cls-1" d="m113.28,99.06c1.58,3.96-.24,8.28-3.95,10.13-1.89.9-4,.96-5.89.35-1.88-.61-3.5-1.88-4.46-3.8-1.86-3.76,0-8.61,4.06-10.58,4.16-1.86,8.66-.04,10.23,3.9Z"/>
        <path class="cls-1" d="m97.06,115.48c.83,1.91.91,4.05.27,5.89-.62,1.85-1.98,3.4-3.83,4.37-3.64,1.97-8.38.73-10.38-3.01-1-1.88-1.1-4.05-.46-6.05.67-1.97,2.16-3.69,4.14-4.73,3.96-2.11,8.58-.31,10.25,3.53Z"/>
        <path class="cls-1" d="m83.16,134.66c.4.98.58,1.99.58,2.97,0,.49-.06.98-.15,1.45-.08.49-.2.96-.37,1.42-.66,1.83-2.01,3.38-3.93,4.29-1.95.89-3.97,1.04-5.85.45-1.86-.59-3.5-1.9-4.44-3.85-.97-1.97-.88-4.12-.15-6.1.77-1.95,2.17-3.72,4.22-4.63,4.09-1.85,8.5.09,10.09,4.01Z"/>
        <path class="cls-1" d="m71.28,155.23c.81,1.83.82,3.79.18,5.5-.62,1.72-1.8,3.25-3.59,4.16-3.55,1.81-7.97.61-9.74-3.05-.88-1.83-.93-3.93-.3-5.81.63-1.88,2.07-3.48,3.91-4.4,3.73-1.83,7.92-.06,9.54,3.61Z"/>
        <path class="cls-1" d="m63.04,176.8c.72,1.88.63,3.84-.11,5.52-.37.84-.9,1.61-1.57,2.27-.63.67-1.41,1.24-2.32,1.64-3.63,1.62-7.92.08-9.48-3.8-.82-1.95-.61-4.04.15-5.87.79-1.82,2.19-3.36,4.09-4.1,3.86-1.47,7.89.62,9.23,4.34Z"/>
        <path class="cls-1" d="m56.2,199.88c1.52,3.23.33,7.02-2.87,8.72-1.57.85-3.3,1.02-4.89.54-1.59-.47-3.01-1.59-3.78-3.25-.79-1.66-.86-3.55-.33-5.23.27-.84.67-1.63,1.24-2.3.58-.67,1.29-1.23,2.11-1.63,3.28-1.61,7.07-.07,8.53,3.14Z"/>
        <path class="cls-1" d="m53.15,223.19c1.28,3.02.2,6.56-2.79,8.12-2.96,1.55-6.58.42-8.07-2.75-1.57-3.17-.09-7.04,2.92-8.45,3.03-1.41,6.58.07,7.93,3.09Z"/>
        <path class="cls-1" d="m52.78,246.84c1.27,2.71.11,5.94-2.47,7.35-2.61,1.4-5.97.35-7.29-2.52-1.29-2.86-.15-6.32,2.55-7.57,2.7-1.26,5.93.03,7.21,2.74Z"/>
        <path class="cls-1" d="m55.21,270.74c1.09,2.33.1,5.1-2.19,6.24-2.29,1.14-5.05.13-6.17-2.33-.56-1.23-.6-2.56-.2-3.72.44-1.16,1.3-2.13,2.47-2.65,1.17-.51,2.44-.48,3.53-.03,1.09.45,1.99,1.32,2.56,2.48Z"/>
        <path class="cls-1" d="m60.29,293.49c.9,1.92.27,4.23-1.58,5.25-1.83,1.01-4.24.28-5.22-1.72-.97-2-.22-4.4,1.67-5.33,1.89-.93,4.19-.11,5.13,1.8Z"/>
        <path class="cls-1" d="m68.24,316c.69,1.54.03,3.35-1.48,4.04-1.51.69-3.31-.04-4.03-1.63s-.05-3.4,1.48-4.04c1.53-.64,3.34.09,4.03,1.63Z"/>
        <path class="cls-1" d="m78.27,337.29c.43.99.01,2.15-.95,2.59-.96.44-2.09-.03-2.54-1.04-.44-1.01-.02-2.16.95-2.58.97-.42,2.1.04,2.53,1.03Z"/>
        <path class="cls-1" d="m58.43,344.9c.43.99.01,2.15-.95,2.59-.96.44-2.09-.03-2.54-1.04-.44-1.01-.02-2.16.95-2.58.97-.42,2.1.04,2.53,1.03Z"/>
        <path class="cls-1" d="m26.92,325.61c.43.99.01,2.15-.95,2.59-.96.44-2.09-.03-2.54-1.04-.44-1.01-.02-2.16.95-2.58.97-.42,2.1.04,2.53,1.03Z"/>
        <path class="cls-1" d="m172.89,62.31c1.35,3.95-.69,8.41-4.59,9.87-3.86,1.58-8.36-.19-10.1-4.05-1.73-3.83.25-8.44,4.48-10.16,4.27-1.61,8.84.3,10.22,4.34Z"/>
        <path class="cls-1" d="m195.04,55.38c1.18,3.93-1.05,8.2-4.93,9.47-3.86,1.35-8.17-.57-9.72-4.43-1.54-3.85.57-8.2,4.77-9.73,4.24-1.37,8.69.71,9.87,4.69Z"/>
        <path class="cls-1" d="m217.92,50.75c1.18,3.7-.94,7.71-4.59,8.95-1.84.59-3.74.5-5.39-.24-1.65-.74-3.04-2.1-3.77-3.91-1.47-3.62.42-7.71,4.36-9.14,3.95-1.33,8.22.66,9.4,4.35Z"/>
        <path class="cls-1" d="m240.65,48.89c1.21,3.29-.61,6.96-3.88,8.18-3.28,1.16-6.95-.27-8.38-3.53-1.42-3.24.11-6.96,3.6-8.33,3.49-1.34,7.45.41,8.66,3.68Z"/>
        <path class="cls-1" d="m262.74,50.05c1.07,3.1-.72,6.44-3.81,7.47-.78.26-1.56.35-2.33.29-.77-.05-1.52-.21-2.21-.52-1.38-.62-2.54-1.76-3.15-3.29-1.23-3.05.27-6.47,3.53-7.62.81-.29,1.65-.41,2.47-.37.82.05,1.61.27,2.34.61,1.45.69,2.62,1.88,3.16,3.43Z"/>
        <path class="cls-1" d="m285.73,53.87c1.06,2.9-.59,6.02-3.49,7.02-1.45.51-2.95.34-4.25-.23-1.3-.56-2.38-1.62-2.97-3.04-1.16-2.85.17-6.08,3.19-7.17,3.02-1.15,6.45.53,7.51,3.41Z"/>
        <path class="cls-1" d="m307.33,60.66c1.01,2.51-.33,5.23-2.82,6.16-1.25.46-2.56.38-3.68-.13-1.12-.5-2.1-1.36-2.62-2.58-1.06-2.44.02-5.27,2.57-6.27,2.56-1.05,5.55.32,6.56,2.82Z"/>
        <path class="cls-1" d="m328.26,71.13c.68,2.09-.54,4.22-2.62,4.82-2.09.62-4.2-.61-4.93-2.61-.71-2.02.34-4.24,2.45-4.9,2.13-.7,4.41.63,5.1,2.69Z"/>
        <path class="cls-1" d="m346.81,83.83c.53,1.64-.4,3.3-2.01,3.76-1.62.46-3.28-.47-3.81-2.07-.55-1.57.28-3.29,1.9-3.8,1.65-.54,3.39.48,3.92,2.11Z"/>
        <path class="cls-1" d="m361.16,97.39c.22,1.1-.51,2.12-1.62,2.3-1.11.18-2.17-.55-2.38-1.64-.22-1.09.48-2.15,1.59-2.33,1.1-.19,2.19.58,2.42,1.68Z"/>
      </g>
      <g>
        <path class="cls-1" d="m130.22,102.8c2.11,3.14,1.33,7.38-1.66,9.57-2.93,2.27-7.28,1.74-9.65-1.14-2.43-2.95-1.72-7.31,1.5-9.81,3.3-2.4,7.72-1.74,9.81,1.38Z"/>
        <path class="cls-1" d="m114.65,116.59c2.02,3.21,1.23,7.44-1.86,9.53-2.96,2.21-7.27,1.68-9.58-1.3-1.14-1.5-1.53-3.35-1.22-5.16.16-.9.49-1.79.98-2.61.5-.81,1.2-1.5,2.03-2.09,3.34-2.34,7.63-1.57,9.65,1.64Z"/>
        <path class="cls-1" d="m100.84,132.35c.98,1.61,1.23,3.46.85,5.14-.36,1.7-1.28,3.3-2.83,4.35-3.11,2.07-7.33,1.59-9.59-1.48-.56-.77-.94-1.63-1.12-2.53-.17-.88-.15-1.8.03-2.7.37-1.8,1.44-3.53,3.07-4.7,3.37-2.28,7.64-1.3,9.59,1.93Z"/>
        <path class="cls-1" d="m89.03,149.2c1.07,1.58,1.43,3.42,1.15,5.13-.27,1.72-1.25,3.26-2.67,4.44-2.91,2.28-7.28,1.93-9.61-1.05-2.32-2.96-1.71-7.67,1.58-10.05,3.22-2.44,7.43-1.64,9.55,1.53Z"/>
        <path class="cls-1" d="m79.8,168.2c.5.79.82,1.65.96,2.51.18.88.19,1.76.04,2.62-.3,1.71-1.25,3.27-2.8,4.37-2.95,2.23-7.27,1.79-9.53-1.32-.56-.78-.94-1.66-1.15-2.58-.18-.91-.16-1.85.01-2.77.36-1.84,1.38-3.59,2.96-4.75,3.3-2.28,7.51-1.26,9.5,1.93Z"/>
        <path class="cls-1" d="m72.68,188.15c1.01,1.48,1.29,3.18,1.05,4.79-.22,1.62-1.06,3.14-2.48,4.23-2.83,2.17-6.92,1.83-9.05-1.08-2.1-2.9-1.56-7.38,1.51-9.56,3-2.21,6.96-1.33,8.96,1.62Z"/>
        <path class="cls-1" d="m69.01,208.41c.93,1.53,1.16,3.26.78,4.85-.42,1.59-1.25,3.07-2.74,4.08-2.93,2.02-6.95,1.38-8.94-1.77-.5-.78-.82-1.65-.98-2.53-.12-.88-.07-1.78.13-2.64.4-1.73,1.41-3.3,2.93-4.27,1.5-.98,3.32-1.16,4.89-.73,1.58.43,2.99,1.48,3.94,3.01Z"/>
        <path class="cls-1" d="m66.8,229.78c1.94,2.58,1.4,6.1-1.06,8.13-2.42,2.02-6.08,1.72-8.08-.93-1.91-2.65-1.48-6.59,1.13-8.53,2.63-1.95,6.19-1.23,8.01,1.34Z"/>
        <path class="cls-1" d="m67.98,250.75c.42.61.68,1.27.84,1.95.17.68.21,1.37.12,2.05-.19,1.36-.89,2.65-2.07,3.58-2.35,1.85-5.7,1.45-7.52-1.09-.89-1.27-1.29-2.8-1.04-4.24.24-1.44,1-2.78,2.21-3.65,2.43-1.74,5.78-1.02,7.46,1.4Z"/>
        <path class="cls-1" d="m71.54,271.57c.78,1.09,1.04,2.39.84,3.63-.17,1.23-.76,2.39-1.82,3.22-2.08,1.66-5.16,1.26-6.82-1.02-1.59-2.3-1.14-5.52,1.03-7.06,2.17-1.55,5.21-.94,6.77,1.24Z"/>
        <path class="cls-1" d="m77.54,292.16c1.33,1.88.9,4.47-.94,5.84-1.83,1.37-4.41.92-5.78-1.07-.68-.99-.93-2.16-.76-3.23.16-1.08.79-2.08,1.73-2.71,1.92-1.28,4.39-.69,5.75,1.18Z"/>
        <path class="cls-1" d="m85.61,311.35c1.09,1.55.91,3.67-.56,4.86-1.45,1.17-3.67.9-4.86-.69-1.16-1.6-.88-3.83.63-4.94,1.52-1.11,3.67-.76,4.79.77Z"/>
        <path class="cls-1" d="m96.11,329.9c.84,1.25.54,2.94-.68,3.79s-2.92.48-3.79-.81c-.87-1.29-.57-2.98.68-3.78,1.25-.8,2.94-.44,3.79.81Z"/>
        <path class="cls-1" d="m108.21,347.08c.53.8.34,1.89-.43,2.42-.77.53-1.85.29-2.39-.52-.55-.82-.35-1.9.44-2.42.79-.52,1.85-.29,2.39.52Z"/>
        <path class="cls-1" d="m93.17,354.83c.53.8.34,1.89-.43,2.42-.77.53-1.85.29-2.39-.52-.55-.82-.35-1.9.44-2.42.79-.52,1.85-.29,2.39.52Z"/>
        <path class="cls-1" d="m148.17,91.56c1.77,3.34.54,7.48-2.67,9.34-3.17,1.95-7.42.95-9.47-2.16-2.09-3.18-.95-7.45,2.53-9.58,3.53-2.04,7.86-.91,9.62,2.41Z"/>
        <path class="cls-1" d="m166.74,82.4c1.59,3.33.2,7.35-3.05,9.01-3.19,1.78-7.31.58-9.17-2.55-1.9-3.2-.64-7.33,2.87-9.23,1.73-.98,3.72-1.04,5.41-.55,1.7.51,3.14,1.66,3.94,3.32Z"/>
        <path class="cls-1" d="m186.28,75.16c1.55,3.1.24,6.92-2.82,8.49-3.04,1.65-6.85.61-8.66-2.4-1.8-3-.69-6.85,2.59-8.63,1.62-.92,3.48-1.02,5.1-.55,1.62.47,3,1.54,3.79,3.09Z"/>
        <path class="cls-1" d="m206.05,70.34c1.53,2.74.45,6.21-2.28,7.73-1.37.74-2.9.96-4.32.61-1.41-.34-2.72-1.22-3.56-2.55-1.71-2.66-.87-6.15,2.02-7.82.72-.42,1.49-.68,2.27-.8.78-.1,1.57-.03,2.31.16,1.49.38,2.79,1.31,3.56,2.67Z"/>
        <path class="cls-1" d="m225.66,68.19c1.39,2.58.3,5.77-2.28,7.12-2.58,1.35-5.76.54-7.28-2-1.52-2.52-.69-5.74,2.02-7.2,1.35-.72,2.89-.91,4.26-.5,1.38.4,2.58,1.3,3.28,2.59Z"/>
        <path class="cls-1" d="m246.45,68.15c1.37,2.4.4,5.39-2,6.7-2.4,1.25-5.39.57-6.84-1.8-1.45-2.34-.75-5.38,1.74-6.77,1.24-.69,2.68-.87,3.97-.52,1.3.36,2.45,1.19,3.13,2.39Z"/>
        <path class="cls-1" d="m266.47,70.75c1.29,2.05.55,4.66-1.49,5.86-1.03.61-2.18.71-3.26.47-1.08-.23-2.06-.86-2.72-1.86-1.31-1.98-.81-4.64,1.27-5.91,1.04-.63,2.27-.8,3.4-.56,1.13.28,2.15.97,2.8,2Z"/>
        <path class="cls-1" d="m286.53,76.48c.95,1.72.24,3.8-1.48,4.67-1.72.87-3.8.18-4.77-1.45-.96-1.66-.4-3.78,1.33-4.71,1.74-.96,3.98-.24,4.92,1.49Z"/>
        <path class="cls-1" d="m304.96,84.36c.75,1.34.24,2.96-1.09,3.65-1.34.7-2.94.14-3.71-1.12-.76-1.28-.34-2.93.99-3.66,1.34-.75,3.06-.21,3.81,1.14Z"/>
        <path class="cls-1" d="m319.95,93.59c.4.92-.06,1.95-.99,2.31-.94.36-1.99-.08-2.38-1-.39-.92.03-1.96.95-2.33.93-.36,2.02.1,2.42,1.02Z"/>
      </g>
      <g>
        <path class="cls-1" d="m116.24,134.56c2.36,2.39,2.41,6.25.14,8.65-2.19,2.48-6.06,2.75-8.63.6-2.58-2.15-2.71-6.11-.31-8.83,2.5-2.63,6.45-2.81,8.81-.43Z"/>
        <path class="cls-1" d="m104.9,149.2c2.27,2.46,2.3,6.31-.05,8.65-2.26,2.39-6.08,2.67-8.6.43-1.25-1.12-1.9-2.68-1.92-4.32,0-.81.11-1.66.43-2.45.33-.78.81-1.51,1.44-2.16,2.53-2.61,6.41-2.63,8.71-.15Z"/>
        <path class="cls-1" d="m95.42,165.26c1.13,1.25,1.66,2.82,1.6,4.36-.08,1.52-.57,3.09-1.76,4.27-1.16,1.19-2.72,1.81-4.29,1.88-1.54.08-3.12-.43-4.36-1.59-2.47-2.3-2.36-6.41.09-9.02,2.61-2.53,6.47-2.4,8.72.11Z"/>
        <path class="cls-1" d="m87.87,181.95c2.39,2.43,2.48,6.16.24,8.62-2.16,2.48-6.02,2.9-8.56.68-1.27-1.11-1.95-2.7-2.04-4.37-.08-1.66.57-3.35,1.75-4.68,1.2-1.32,2.74-2.01,4.31-2.03,1.58-.02,3.12.59,4.29,1.79Z"/>
        <path class="cls-1" d="m82.95,200.09c2.21,2.45,2.33,6.19,0,8.61-2.3,2.42-6.07,2.75-8.59.39-1.28-1.19-1.83-2.81-1.84-4.48.02-1.67.56-3.38,1.82-4.64,2.52-2.53,6.35-2.34,8.63.12Z"/>
        <path class="cls-1" d="m79.96,218.72c1.12,1.13,1.69,2.58,1.7,4.03.02,1.45-.41,2.92-1.48,4.11-2.11,2.35-5.74,2.71-8.09.5-1.18-1.11-1.81-2.65-1.88-4.23-.06-1.58.55-3.17,1.66-4.38,2.24-2.42,5.86-2.29,8.1-.03Z"/>
        <path class="cls-1" d="m79.96,237.07c1.07,1.2,1.56,2.67,1.49,4.13-.07,1.46-.7,2.9-1.79,4.01-2.23,2.23-5.85,2.29-8.11-.14-1.13-1.21-1.58-2.82-1.54-4.4.08-1.57.65-3.11,1.88-4.2,2.44-2.19,6.04-1.78,8.07.6Z"/>
        <path class="cls-1" d="m81.42,256.15c.97.99,1.56,2.27,1.62,3.57.07,1.3-.37,2.64-1.31,3.72-1.88,2.16-5.09,2.45-7.21.42-2.12-2.02-2.36-5.53-.33-7.65,1.98-2.11,5.23-2.04,7.23-.07Z"/>
        <path class="cls-1" d="m85.68,274.35c.94.93,1.38,2.16,1.42,3.38.06,1.22-.35,2.46-1.23,3.44-1.76,1.98-4.78,2.14-6.78.2-1.03-.96-1.51-2.27-1.53-3.57-.02-1.3.42-2.58,1.35-3.53,1.85-1.89,4.91-1.78,6.77.08Z"/>
        <path class="cls-1" d="m91.96,292.07c1.73,1.66,1.75,4.39.18,6.16-1.56,1.77-4.35,1.91-6.09.13-1.75-1.77-1.92-4.63-.2-6.34,1.71-1.71,4.37-1.6,6.12.05Z"/>
        <path class="cls-1" d="m100.37,309.21c1.47,1.43,1.51,3.75.12,5.24-1.39,1.48-3.73,1.49-5.26-.02-1.56-1.49-1.5-3.98-.05-5.38,1.46-1.41,3.8-1.31,5.19.16Z"/>
        <path class="cls-1" d="m110.47,324.72c1.23,1.16,1.34,3.1.27,4.36-1.09,1.27-3.07,1.38-4.34.16-1.29-1.21-1.41-3.2-.26-4.41,1.15-1.22,3.1-1.25,4.33-.1Z"/>
        <path class="cls-1" d="m122.67,339.21c.95.94.97,2.47.05,3.41-.92.94-2.47.91-3.46-.06-1-.97-1-2.52-.03-3.43.95-.9,2.48-.85,3.44.08Z"/>
        <path class="cls-1" d="m136.2,352.09c.61.61.63,1.59.05,2.19-.58.6-1.56.59-2.18-.03-.62-.62-.64-1.59-.05-2.19.59-.59,1.57-.58,2.17.03Z"/>
        <path class="cls-1" d="m154.83,360.39c.61.61.63,1.59.05,2.19-.58.6-1.56.59-2.18-.03-.62-.62-.64-1.59-.05-2.19.59-.59,1.57-.58,2.17.03Z"/>
        <path class="cls-1" d="m126.42,360.98c.61.61.63,1.59.05,2.19-.58.6-1.56.59-2.18-.03-.62-.62-.64-1.59-.05-2.19.59-.59,1.57-.58,2.17.03Z"/>
        <path class="cls-1" d="m130.04,121.72c2.1,2.62,1.75,6.47-.77,8.61-2.43,2.24-6.31,2.1-8.64-.3-2.35-2.41-2.07-6.35.6-8.8,2.76-2.36,6.71-2.13,8.81.49Z"/>
        <path class="cls-1" d="m144.74,110.6c1.94,2.64,1.41,6.41-1.15,8.39-2.5,2.08-6.27,1.75-8.45-.7-2.2-2.47-1.77-6.28.96-8.55,2.79-2.19,6.7-1.78,8.64.85Z"/>
        <path class="cls-1" d="m160.64,101.04c1.86,2.46,1.34,6.02-1.06,7.91-1.22.92-2.66,1.38-4.1,1.26-1.43-.12-2.84-.77-3.87-1.93-2.07-2.32-1.74-5.88.84-7.99,2.6-2.07,6.34-1.69,8.19.76Z"/>
        <path class="cls-1" d="m177.19,93.65c1.77,2.15,1.37,5.38-.76,7.15-2.16,1.73-5.27,1.63-7.21-.44-1.92-2.05-1.75-5.25.51-7.19,2.26-1.93,5.7-1.65,7.46.48Z"/>
        <path class="cls-1" d="m194.06,88.73c1.61,2.04,1.14,5.02-.9,6.61-2.06,1.54-4.96,1.35-6.69-.63-1.72-1.97-1.49-4.93.65-6.64.53-.43,1.13-.74,1.76-.93.63-.17,1.28-.22,1.91-.15,1.27.13,2.46.72,3.27,1.75Z"/>
        <path class="cls-1" d="m212.3,85.57c1.56,1.89,1.14,4.67-.77,6.19-.96.76-2.12,1.06-3.25.94-1.12-.08-2.21-.58-3.02-1.5-1.62-1.83-1.46-4.6.51-6.21.49-.4,1.05-.7,1.63-.87.58-.16,1.19-.21,1.79-.15,1.19.12,2.32.66,3.1,1.61Z"/>
        <path class="cls-1" d="m230.26,84.94c1.43,1.6,1.16,4-.47,5.36-1.63,1.37-4.01,1.15-5.45-.35-1.44-1.54-1.38-3.95.26-5.38,1.64-1.48,4.23-1.21,5.65.37Z"/>
        <path class="cls-1" d="m248.71,87.09c1.08,1.37.76,3.29-.63,4.31-1.39,1.03-3.31.73-4.4-.6-1.08-1.31-.9-3.25.49-4.33,1.39-1.07,3.45-.74,4.53.61Z"/>
        <path class="cls-1" d="m266.03,91.32c.86,1.06.65,2.56-.41,3.36-1.07.8-2.58.6-3.42-.45-.86-1.01-.73-2.52.33-3.36,1.06-.86,2.64-.6,3.5.45Z"/>
        <path class="cls-1" d="m280.57,97.14c.49.75.26,1.72-.51,2.18-.76.46-1.76.24-2.24-.5-.48-.74-.28-1.73.48-2.19.76-.46,1.79-.23,2.28.52Z"/>
      </g>
      <g>
        <path class="cls-1" d="m109.16,163c2.45,1.75,3.07,5.13,1.43,7.6-1.56,2.52-4.94,3.33-7.52,1.83-2.6-1.52-3.31-4.98-1.6-7.73,1.8-2.69,5.25-3.44,7.69-1.7Z"/>
        <path class="cls-1" d="m101.36,177.6c2.37,1.84,2.96,5.22,1.23,7.63-1.64,2.44-4.97,3.25-7.52,1.65-1.26-.81-2.07-2.09-2.33-3.53-.13-.72-.15-1.48.02-2.22.17-.73.49-1.45.95-2.12,1.85-2.67,5.26-3.26,7.65-1.42Z"/>
        <path class="cls-1" d="m95.36,193.16c1.18.93,1.88,2.25,2.06,3.6.15,1.35-.05,2.81-.92,4.02-.85,1.22-2.13,2-3.51,2.29-1.35.3-2.82.09-4.08-.75-2.51-1.66-3.03-5.3-1.25-7.96,1.93-2.62,5.35-3.07,7.7-1.19Z"/>
        <path class="cls-1" d="m91.19,208.98c2.46,1.78,3.11,5.06,1.5,7.56-1.52,2.51-4.87,3.46-7.44,1.89-1.28-.79-2.13-2.09-2.45-3.55-.31-1.45,0-3.04.84-4.39,1.68-2.72,5.14-3.27,7.54-1.5Z"/>
        <path class="cls-1" d="m89.58,225.7c2.32,1.82,3,5.08,1.31,7.57-1.65,2.48-4.92,3.36-7.51,1.67-1.31-.85-2.04-2.19-2.31-3.67-.24-1.47-.03-3.07.89-4.37,1.83-2.62,5.23-3.03,7.62-1.21Z"/>
        <path class="cls-1" d="m89.83,242.55c1.16.82,1.89,2,2.12,3.28.25,1.27.1,2.63-.66,3.84-1.49,2.4-4.62,3.3-7.04,1.72-1.21-.79-2.01-2.05-2.32-3.43-.31-1.38-.01-2.88.77-4.11,1.6-2.48,4.8-2.93,7.12-1.3Z"/>
        <path class="cls-1" d="m92.73,258.67c1.13.88,1.8,2.1,1.97,3.39.09.65.05,1.31-.12,1.96-.15.65-.41,1.27-.81,1.85-1.61,2.32-4.78,2.96-7.16,1.18-2.34-1.78-2.82-5.33-1.09-7.62,1.8-2.32,5.02-2.53,7.2-.76Z"/>
        <path class="cls-1" d="m97.09,275.2c2.09,1.41,2.79,4.14,1.47,6.36-1.27,2.19-4.08,2.99-6.27,1.55-2.18-1.43-2.99-4.47-1.54-6.67,1.4-2.18,4.26-2.65,6.34-1.24Z"/>
        <path class="cls-1" d="m103.81,290.49c1.9,1.36,2.51,3.93,1.29,5.96-1.23,2.03-3.85,2.67-5.92,1.29-.52-.34-.95-.77-1.29-1.26-.31-.5-.53-1.05-.65-1.62-.23-1.14-.05-2.34.61-3.33,1.32-1.97,4.02-2.37,5.96-1.04Z"/>
        <path class="cls-1" d="m112.25,305.03c1.79,1.17,2.23,3.59,1.17,5.38-1.07,1.8-3.53,2.4-5.34,1.12-1.83-1.27-2.42-3.77-1.22-5.53,1.21-1.77,3.6-2.14,5.39-.97Z"/>
        <path class="cls-1" d="m122.45,318.71c1.52,1.02,1.93,3.06.95,4.59-.98,1.53-3.04,1.92-4.62.83-1.61-1.07-1.98-3.24-.92-4.71,1.06-1.48,3.11-1.76,4.59-.71Z"/>
        <path class="cls-1" d="m133.83,330.74c.64.41,1.05,1.04,1.21,1.73.17.68.1,1.41-.28,2.05-.75,1.28-2.49,1.71-3.8.83-1.32-.86-1.74-2.59-.92-3.85.82-1.25,2.52-1.59,3.79-.77Z"/>
        <path class="cls-1" d="m146.85,341.59c.98.69,1.24,2.03.57,3-.67.97-2.04,1.18-3.05.47-1.02-.71-1.27-2.05-.56-3.01.69-.93,2.06-1.15,3.04-.46Z"/>
        <path class="cls-1" d="m160.73,350.9c.63.44.79,1.31.37,1.92-.42.62-1.29.75-1.93.3s-.8-1.31-.37-1.92c.44-.61,1.29-.74,1.92-.3Z"/>
        <path class="cls-1" d="m119.34,149.58c2.26,1.98,2.53,5.42.65,7.7-1.8,2.35-5.25,2.81-7.66,1.07-2.45-1.78-2.8-5.27-.82-7.84,2.05-2.5,5.58-2.9,7.83-.93Z"/>
        <path class="cls-1" d="m130.56,137.5c2.12,2.02,2.24,5.42.28,7.56-1.87,2.23-5.26,2.51-7.54.7-2.32-1.84-2.54-5.26-.48-7.67,2.1-2.37,5.63-2.61,7.74-.59Z"/>
        <path class="cls-1" d="m143.06,126.62c2.02,1.88,2.11,5.09.29,7.12-1.81,2.06-4.92,2.38-7.11.64-2.18-1.72-2.44-4.9-.5-7.16,1.96-2.23,5.32-2.47,7.33-.6Z"/>
        <path class="cls-1" d="m156.49,117.56c1.89,1.62,2.03,4.52.43,6.41-1.63,1.85-4.39,2.25-6.41.72-2.01-1.51-2.35-4.35-.66-6.41,1.69-2.05,4.77-2.33,6.64-.72Z"/>
        <path class="cls-1" d="m170.6,110.65c1.73,1.56,1.76,4.25.21,5.96-1.58,1.67-4.16,1.95-5.98.46-1.81-1.47-2.07-4.11-.44-5.95.41-.46.89-.82,1.41-1.09.53-.24,1.1-.38,1.66-.42,1.14-.08,2.28.27,3.14,1.04Z"/>
        <path class="cls-1" d="m186.21,105.13c1.65,1.44,1.7,3.94.25,5.57-.73.81-1.71,1.25-2.72,1.31-1,.1-2.04-.18-2.89-.87-1.7-1.37-1.98-3.83-.48-5.55,1.48-1.75,4.19-1.87,5.84-.46Z"/>
        <path class="cls-1" d="m201.96,101.92c1.49,1.2,1.61,3.35.38,4.8-1.23,1.45-3.36,1.6-4.85.49-1.49-1.14-1.8-3.27-.56-4.78,1.23-1.55,3.55-1.68,5.04-.51Z"/>
        <path class="cls-1" d="m218.54,101.12c1.15,1.05,1.15,2.79.07,3.89-1.08,1.11-2.82,1.13-3.96.11-1.15-1-1.27-2.74-.2-3.89,1.07-1.13,2.94-1.16,4.09-.12Z"/>
        <path class="cls-1" d="m234.44,102.33c.91.81.95,2.16.12,3.02-.83.86-2.19.91-3.08.1-.9-.77-1.01-2.12-.2-3.01.81-.9,2.24-.91,3.16-.11Z"/>
        <path class="cls-1" d="m248.11,105.33c.54.58.48,1.48-.13,1.99-.61.52-1.52.47-2.05-.11-.54-.58-.5-1.48.1-2,.6-.52,1.54-.46,2.08.12Z"/>
      </g>
      <g>
        <path class="cls-1" d="m108.34,190.11c2.42,1.15,3.46,4,2.44,6.43-.99,2.44-3.81,3.69-6.29,2.77-2.53-.93-3.68-3.84-2.61-6.51,1.12-2.64,4.06-3.83,6.46-2.69Z"/>
        <path class="cls-1" d="m103.79,204.1c2.37,1.25,3.39,4.11,2.24,6.48-1.01,2.4-3.84,3.61-6.31,2.62-1.23-.51-2.13-1.5-2.58-2.72-.46-1.22-.47-2.65.16-3.95,1.22-2.62,4.11-3.67,6.48-2.43Z"/>
        <path class="cls-1" d="m100.97,218.63c1.18.63,1.99,1.67,2.35,2.82.39,1.16.4,2.46-.16,3.66-1.15,2.37-3.9,3.6-6.38,2.54-2.52-1.06-3.48-4.16-2.35-6.77,1.24-2.6,4.2-3.53,6.54-2.25Z"/>
        <path class="cls-1" d="m99.82,233.13c1.22.58,2.1,1.57,2.55,2.71.46,1.14.41,2.43-.03,3.66-.94,2.43-3.72,3.8-6.22,2.83-2.49-.96-3.8-4.05-2.66-6.69,1.07-2.65,3.93-3.67,6.36-2.51Z"/>
        <path class="cls-1" d="m101.06,248c2.31,1.22,3.46,3.96,2.35,6.41-1.01,2.43-3.76,3.72-6.28,2.65-1.27-.53-2.18-1.59-2.62-2.83-.45-1.25-.47-2.68.07-3.96,1.19-2.58,4.11-3.48,6.47-2.27Z"/>
        <path class="cls-1" d="m103.97,262.68c1.15.53,1.96,1.45,2.36,2.53.46,1.06.51,2.29.04,3.46-.93,2.34-3.53,3.62-5.88,2.62-2.35-.99-3.62-3.91-2.55-6.35,1.01-2.42,3.73-3.33,6.02-2.27Z"/>
        <path class="cls-1" d="m109.08,276.32c2.27,1.17,3.03,3.87,2.05,6.13-1.04,2.28-3.71,3.35-6.07,2.16-2.36-1.17-3.28-4.22-2.17-6.48,1.22-2.31,3.97-3,6.19-1.81Z"/>
        <path class="cls-1" d="m115.48,290.1c2.07.89,3.09,3.19,2.28,5.33-.74,2.1-3.1,3.25-5.24,2.34-2.11-.92-3.32-3.44-2.39-5.59.88-2.13,3.32-2.99,5.35-2.08Z"/>
        <path class="cls-1" d="m123.75,302.42c1.87.9,2.82,3.04,2.05,5.02-.76,1.97-2.95,2.93-4.98,2.04-2.06-.85-2.96-3.31-2.12-5.22.85-1.93,3.15-2.7,5.05-1.83Z"/>
        <path class="cls-1" d="m133.39,313.84c1.74.75,2.51,2.8,1.85,4.53-.66,1.74-2.72,2.64-4.51,1.8-1.8-.83-2.69-2.94-1.92-4.65.78-1.73,2.83-2.43,4.57-1.68Z"/>
        <path class="cls-1" d="m144.41,324.26c1.49.66,2.16,2.39,1.53,3.88-.63,1.49-2.37,2.14-3.92,1.43-1.57-.69-2.23-2.53-1.53-3.98.71-1.46,2.45-2.01,3.91-1.32Z"/>
        <path class="cls-1" d="m156.2,333.06c.62.26,1.08.75,1.32,1.33.25.57.3,1.22.06,1.84-.47,1.23-1.92,1.88-3.2,1.3-1.29-.56-1.92-2.01-1.39-3.23.53-1.22,1.97-1.78,3.2-1.25Z"/>
        <path class="cls-1" d="m169.24,340.61c.96.45,1.39,1.59.95,2.54-.44.95-1.6,1.34-2.6.87-1-.47-1.42-1.61-.94-2.55.47-.92,1.63-1.31,2.59-.86Z"/>
        <path class="cls-1" d="m182.78,346.67c.61.29.89,1.02.61,1.63-.28.6-1.01.85-1.64.55s-.9-1.03-.61-1.62,1.02-.85,1.64-.55Z"/>
        <path class="cls-1" d="m115.12,176.77c2.3,1.38,3.05,4.32,1.79,6.63-1.23,2.33-4.15,3.29-6.53,2.15-2.42-1.17-3.3-4.18-1.96-6.72,1.37-2.53,4.42-3.42,6.69-2.06Z"/>
        <path class="cls-1" d="m122.98,164.41c2.19,1.43,2.81,4.36,1.47,6.56-1.29,2.24-4.2,3.03-6.48,1.83-1.14-.62-1.94-1.67-2.24-2.87-.3-1.19-.12-2.55.59-3.76,1.43-2.43,4.5-3.18,6.66-1.76Z"/>
        <path class="cls-1" d="m132.14,152.88c2.07,1.31,2.67,4.1,1.4,6.17-1.23,2.11-3.92,2.87-6.11,1.72-2.19-1.15-2.93-3.89-1.6-6.17,1.33-2.29,4.25-3.02,6.3-1.72Z"/>
        <path class="cls-1" d="m142.39,142.77c1.92,1.11,2.51,3.62,1.41,5.53-1.12,1.89-3.46,2.68-5.48,1.67-2-1-2.76-3.42-1.62-5.48.56-1.04,1.51-1.75,2.56-2.05,1.04-.31,2.17-.22,3.13.33Z"/>
        <path class="cls-1" d="m153.59,134.44c1.76,1.08,2.23,3.42,1.14,5.17-1.11,1.71-3.31,2.38-5.15,1.37-1.83-.99-2.48-3.25-1.35-5.12,1.1-1.9,3.6-2.49,5.35-1.41Z"/>
        <path class="cls-1" d="m166.33,127.1c1.68.99,2.12,3.18,1.11,4.82-.51.83-1.3,1.35-2.16,1.59-.86.25-1.81.16-2.66-.3-1.71-.92-2.35-3.03-1.31-4.77,1.01-1.77,3.36-2.32,5.03-1.34Z"/>
        <path class="cls-1" d="m179.59,121.78c1.5.81,1.94,2.68,1.09,4.13-.85,1.45-2.68,1.93-4.16,1.2-1.49-.76-2.1-2.58-1.25-4.09.83-1.54,2.84-2.05,4.33-1.24Z"/>
        <path class="cls-1" d="m193.97,118.48c1.17.74,1.44,2.26.67,3.39-.77,1.14-2.29,1.42-3.45.72-1.16-.7-1.54-2.2-.78-3.37.76-1.17,2.39-1.47,3.56-.74Z"/>
        <path class="cls-1" d="m208.07,117.09c.92.57,1.16,1.75.57,2.63-.59.88-1.77,1.13-2.68.56-.91-.53-1.21-1.7-.63-2.61.57-.92,1.82-1.14,2.74-.58Z"/>
        <path class="cls-1" d="m220.5,117.64c.56.43.64,1.22.19,1.76-.45.54-1.26.64-1.82.21-.56-.43-.66-1.22-.22-1.77.45-.55,1.28-.64,1.84-.21Z"/>
      </g>
    </g>
    <g>
      <path class="cls-1" d="m479.54,229.57c-.66-31.6-7.46-62.19-20.21-90.93-.05-.14-.09-.26-.15-.4-.29-.78-.65-1.55-1.05-2.27-6.92-12.5-21.16-10.66-28.28-7.4-5.29,2.42-9.44,6.53-11.54,11.63-.35-.22-.7-.43-.98-.6-18.81-11.27-42-17.63-67.12-18.44-.11-1.53-.23-3.06-.38-4.58l-.11-1.07-1.08-.03c-5.5-.12-11.01,0-16.38.38l-1.26.08.13,1.26c.15,1.51.27,2.97.38,4.39-17.34,1.33-34.83,5.33-50.72,11.6-.57-1.22-1.15-2.44-1.75-3.64l-.52-1.03-1.06.45c-5.04,2.16-9.98,4.56-14.69,7.14l-1.04.57.53,1.06c.53,1.04,1.06,2.13,1.61,3.31-9.34,4.35-28.1,18.33-36.62,28.32-.32.11-.52.33-.55.38-.77.92-.28,1.35,1.54,2.95,2.63,2.31,8.1,7.11,10.95,10.19l.93,1,.89-1.04c3.39-3.96,7.2-7.73,11.32-11.24,2.91,5.19,4.83,9.93,6.46,14.3l.48,1.29,1.22-.63c4.68-2.41,9.73-4.49,15-6.23.6,5.06.77,10.19.55,16.01l-.05,1.37,1.37-.11c5.28-.42,10.74-.41,16.24,0-1.62,5.63-3.68,10.46-5.7,14.85l-.57,1.25,1.31.42c5.06,1.61,10.16,3.71,15.16,6.25-3.69,4.66-7.49,8.35-11.07,11.65l-1.01.94,1.05.89c4.1,3.47,7.98,7.37,11.59,11.6-4.9,2.76-9.96,5.12-15.09,6.99l-1.29.47.63,1.23c2.5,4.89,4.63,9.84,6.34,14.73-5.45.63-10.92.83-16.3.6l-1.37-.05.11,1.37c.42,5.26.47,10.51.2,15.63-5.45-1.52-10.26-3.25-15-5.43l-1.24-.57-.43,1.31c-3.51,10.8-8.62,20.98-15.2,30.24-.81,1.16-1.7,2.35-2.62,3.55-.7-.83-1.47-1.77-2-2.41l-1.23-1.52-13.74,13.32.69.87c1.14,1.42,2.35,2.79,3.59,4.15-10.43,9.98-23.33,19.16-36.57,26.03-1.09-2.97-1.5-4.01-2.35-6.83l-.37-1.27-1.24.48c-4.8,1.86-9.94,3.54-15.27,4.99l-1.21.33.36,1.2c1.07,3.56,1.68,5.2,2.97,8.69-22.28,8.29-46.01,10.95-67.01,7.5-.77-3.76-1.28-5.95-1.67-9.83l-.11-1.08-1.08-.02c-4.79-.08-9.86-.28-15.49-.59l-1.45-.09.17,1.45c.33,2.73.67,3.78,1.18,6.4-5.74.28-11.53,2.81-15.35,6.76-8.39,8.7-8.1,22.22.65,30.77l-.07.07c44.78,43.47,103.34,67.27,165.32,67.27,1.35,0,2.7,0,4.05-.03.25.01.5.01.75.01v-.03h.23c63.3-1.32,122.41-27.32,166.44-73.22,44.03-45.9,67.56-106.04,66.25-169.34Zm-18.69-80.96c10.14,25.68,15.6,52.73,16.24,80.57h-.06c.12,8.69-5.32,16.46-13.56,19.33-1.96.7-4.02,1.07-6.14,1.12-4.84.11-10.65-2.27-14.67-5.96,2.29-3.59,4.35-7.27,6.15-11.03.46,1.21,1.18,2.32,2.14,3.24,1.71,1.67,3.93,2.51,6.3,2.5,4.53-.1,8.22-3.66,8.59-8.18l.26-.31-.22-.48v-.16c0-.23-.02-.45-.04-.66-.9-25.67-6.97-49.61-12.01-65.42,4.15-3.9,6.59-9.13,7.02-14.56Zm-15.17,155.65c-2.85-1.1-6.12-.61-8.58,1.27l-.15.11c-1.27.94-2.36,2.13-3.42,3.29-.78.86-1.52,1.66-2.32,2.37-9.67,8.58-20.68,15.16-33.66,20.09-.41-4.44-1.05-8.98-1.91-13.54,12.49-4.84,23.51-11.5,33.67-20.34.05-.04.1-.08.11-.09.04-.03.07-.06.12-.1,5.28-4.3,12.81-5.48,19.22-2.99,1.86.73,3.73,1.84,5.42,3.22-1.11,3.95-2.31,7.82-3.6,11.57-.01-.03-.02-.05-.03-.08-.95-2.22-2.68-3.92-4.87-4.78Zm2.7,10.77c-.63,1.61-1.84,2.87-3.42,3.56-1.57.69-3.31.72-4.9.1-1.59-.62-2.83-1.83-3.51-3.41-.68-1.59-.71-3.36-.08-4.98.42-1.07,1.1-2.01,1.97-2.72l.08-.06c.09-.06.18-.13.27-.18v-.02c1.75-1.24,4.02-1.54,6-.78,1.57.62,2.82,1.85,3.5,3.46.69,1.62.72,3.41.09,5.03Zm-52.12,62.01c2.04-.43,4.19.14,5.7,1.58,2.55,2.44,2.6,6.53.12,9.13-2.49,2.6-6.58,2.73-9.12.3-1.23-1.17-1.92-2.76-1.94-4.49-.03-1.73.62-3.37,1.82-4.63.55-.58,1.18-1.04,1.88-1.36.5-.19,1.01-.36,1.55-.52h-.01Zm7.39-.19c-2.61-2.49-6.58-3.1-9.86-1.55-1.16.42-2.24.88-3.29,1.32-1.25.54-2.43,1.04-3.71,1.46-11.82,3.91-24.7,5.73-38.35,5.39,1.33-4.32,2.47-8.79,3.41-13.32,13.96.3,27.3-1.7,39.64-5.9,6.51-1.9,13.88-.1,18.79,4.6,1.44,1.37,2.72,3.07,3.74,4.95-2.53,3.27-5.09,6.4-7.67,9.36-.01-2.31-.91-4.6-2.7-6.31Zm-67.11,51.41h-.01c-1.23-2.79-3.89-4.76-6.95-5.15-.13-.03-.26-.04-.37-.05-.04,0-.09,0-.13,0-.22-.03-.45-.04-.67-.03-.48-.01-.95.01-1.42.03-.4.02-.8.04-1.21.03-14.33-.25-28.71-3.58-42.74-9.86,2.87-3.45,5.64-7.15,8.27-11.01,12.78,5.62,25.85,8.9,38.83,9.74,6.77.6,12.74,4.99,15.59,11.47.8,1.8,1.33,3.86,1.55,5.99-3.44,1.94-6.99,3.82-10.64,5.62.84-2.12.87-4.54-.1-6.77Zm-5.64,9.46c-3.28,1.45-7.12,0-8.54-3.22-1.42-3.22.11-7.03,3.39-8.47.25-.11.51-.21.78-.28.62-.19,1.25-.28,1.86-.28h.05c.15,0,.3.01.44.01.07,0,.14,0,.24.03l.1.02c.09.01.18.02.28.05h0c2.12.34,3.94,1.73,4.8,3.67,1.41,3.22-.11,7.02-3.4,8.47Zm-69.67-3.82c7.19-5.26,13.97-11.55,20.16-18.74,8.36,3.8,16.84,6.57,25.37,8.29-2.07,5.15-1.91,11.77.49,17.25.73,1.66,1.66,3.21,2.76,4.64-14.41,4.51-28.99,7.73-43.1,9.56.5-1.99.74-4.01.71-5.92-.12-5.82-2.47-11.21-6.39-15.08Zm-6.4,16.06c-.08-3.33-2.11-6.39-5.18-7.8-1.44-.76-2.93-1.35-4.37-1.93-1.37-.54-2.66-1.05-3.9-1.69-11.3-5.82-21.23-13.34-30.28-22.93,4.03-2.11,8.04-4.47,11.94-7.04,3.93,4.1,8.11,7.93,12.46,11.35.67.53,1.34,1.05,2,1.55l.11.08c.51.38,1.03.77,1.54,1.14.59.43,1.2.87,1.83,1.31.47.33.94.66,1.48,1.02.46.31.93.62,1.4.93h0c3.63,2.41,7.45,4.61,11.32,6.52,6.02,3.14,9.85,9.48,10,16.56.04,1.99-.27,4.12-.89,6.19-4.05.47-8.05.83-12,1.07,1.61-1.63,2.58-3.88,2.54-6.33Zm-8.83,6.58c-3.57.05-6.58-2.72-6.65-6.24-.04-1.7.6-3.31,1.81-4.54,1.21-1.24,2.83-1.95,4.57-1.98.05-.01.1-.01.16-.01.91,0,1.83.2,2.67.58.3.16.59.33.89.51v-.02c1.76,1.14,2.88,3.09,2.93,5.18.07,3.52-2.8,6.45-6.38,6.52Zm-21.47-.92c-15.23-1.4-30.34-4.07-44.21-7.77,1.23-1.64,2.22-3.4,2.92-5.19,2.05-5.24,1.91-11.2-.2-16.35,8.63-2.08,17.3-5.29,25.79-9.54,6.38,6.82,13.36,12.76,20.85,17.73-3.84,4.24-6.12,10.12-6.01,15.6.04,1.88.33,3.73.86,5.52Zm-53.49-16.95c1.13-2.87.63-6.17-1.3-8.65l-.11-.14c-.94-1.24-2.17-2.41-3.36-3.54-.94-.89-1.91-1.81-2.71-2.74-8.1-9.44-14.68-20.68-19.58-33.47,4.47-.4,9.04-1.04,13.62-1.91,5,12.91,11.81,24.39,20.27,34.12.04.05.08.1.09.12.04.06.09.12.15.19,4.21,5.28,5.33,12.78,2.86,19.12-.73,1.86-1.83,3.71-3.2,5.37-3.97-1.11-7.83-2.3-11.55-3.57,2.14-.89,3.92-2.6,4.82-4.9Zm-10.67,2.69c-3.35-1.32-5.03-5.05-3.75-8.33.98-2.5,3.41-4.03,6-4.03.8,0,1.62.15,2.41.45,1.04.41,1.96,1.07,2.66,1.93l.34.47h.01c1.21,1.75,1.49,3.98.73,5.93-1.29,3.28-5.06,4.88-8.4,3.58Zm-6.61-26.7c-5.09,2.43-9.55,7.11-11.54,12.18-.67,1.75-1.13,3.55-1.35,5.4-13.41-7.08-26.32-15.39-37.74-24.2,1.73-1.04,3.3-2.27,4.6-3.62,3.9-4.05,6.06-9.61,6.09-15.17,8.85,1.4,18.13,1.77,27.62,1.09,3.33,8.84,7.45,16.97,12.32,24.32Zm135.68-96.48c3.62,1.32,7.36,2.51,11.12,3.54-.43,4.56-1.07,9.11-1.92,13.65-12.9-3.4-25.12-8.24-36.37-14.39,2.54-3.67,4.96-7.55,7.34-11.77,6.2,3.45,12.87,6.46,19.83,8.97Zm-18.65-11.1c.4-.73.8-1.48,1.2-2.24,1,.25,1.94.47,2.92.69-.26,1.1-.54,2.21-.84,3.31-1.11-.57-2.2-1.16-3.28-1.76Zm40.4-13.63c2.23,0,4.48-.06,6.73-.17,3.77-.17,7.68-.51,11.62-1.01,1.35,4.38,2.52,8.83,3.47,13.35-13.18,1.8-26.3,2.03-39.01.67,1.04-4.53,1.85-9.1,2.46-13.66,4.82.54,9.74.82,14.73.82Zm-14.44-3.24c.11-.93.23-1.88.32-2.81.94-.02,1.68-.1,2.56-.23.19,1.12.33,2.25.48,3.37-1.12-.09-2.25-.2-3.36-.33Zm48.34-35.69l-.82-1.46c3.32,3.93,6.44,8.04,9.37,12.33-11.55,6.71-23.64,11.93-36.01,15.54-.77-4.58-1.75-9.13-2.92-13.56,10.31-2.96,20.52-7.28,30.38-12.85Zm-31.03,10.5c-.29-1.04-.59-2.05-.9-3.05.81-.28,1.54-.53,2.42-1.01.61,1,1.21,2.02,1.8,3.05-1.11.35-2.21.69-3.32,1.01Zm30.81-51.89l-.22-.17c4.13,2.19,8.17,4.57,12.12,7.15-8.05,10.55-17.17,19.93-27.13,27.95-2.53-4.02-5.18-7.84-7.9-11.39,8.36-6.67,16.15-14.58,23.13-23.54Zm-24.63,21.61c-.65-.82-1.32-1.65-2.04-2.53.59-.61,1.14-1.2,1.72-1.95,1.02.73,2.02,1.5,3.01,2.27-.89.75-1.79,1.49-2.69,2.21Zm-3.82-60.44c3.26.05,6.54.2,9.84.46-.04.16-.08.32-.12.48-.14.51-.27,1.03-.38,1.41-.75,2.56-1.58,5.09-2.45,7.57-2.53-.75-5.08-1.45-7.62-2.08.31-2.76.56-5.36.73-7.84Zm-1.32-31.74c5.54-1.06,11.12-1.84,16.64-2.3-.27,5.42-.81,10.83-1.63,16.19-4.52-.42-9.09-.66-13.61-.72-.27-4.01-.73-8.33-1.4-13.17Zm10.14,43.57c1.03-2.86,2-5.82,2.87-8.8.12-.41.26-.95.4-1.49.07-.29.15-.59.22-.86,4.57.44,9.15,1.09,13.7,1.93-3.38,12.82-8.19,24.97-14.29,36.17-3.81-2.7-7.73-5.21-11.68-7.49,3.35-6.07,6.29-12.61,8.78-19.46Zm138.17,43.8c-.24,3.32-2.92,5.94-6.21,6.01-1.68.05-3.32-.6-4.55-1.8-1.24-1.21-1.95-2.83-1.99-4.58-.01-.56.05-1.11.19-1.66.23-.64.49-1.37.89-2.06h-.01c1.12-1.75,3.04-2.88,5.17-2.93,3.29-.1,6.16,2.49,6.49,5.84l.03.9-.02.26v.02Zm-6.56-9.47c-3.95.09-7.38,2.86-8.33,6.71l-.13.35c-.15.39-.29.79-.46,1.18-5.65,12.83-14.21,24.74-25.49,35.46-2.08-3.97-4.43-7.95-7-11.86,10.08-9.65,18.12-20.44,23.9-32.17,3.25-5.93,9.74-9.86,16.55-10.02,1.95-.04,4.04.25,6.09.85.48,3.91.86,7.9,1.13,11.95-1.64-1.56-3.86-2.46-6.26-2.45Zm-83.68,77.23c4.32-1.68,8.53-3.52,12.62-5.51,3.16,8.32,5.61,16.77,7.26,25.13,1.05,5.35,1.79,10.7,2.2,15.88.77,9.65.44,19.07-.98,28.01-1.15.13-2.3.36-3.42.69-.14.03-.26.07-.46.13v.02c-3.08,1.04-6.22,1.93-9.42,2.69,3.22-21.32.46-45.02-7.8-67.04Zm-105.63,109.07c8.83-10.16,16.24-21.76,22.03-34.5,4.22,1.86,8.5,3.54,12.81,5.04-3.61,8.04-7.83,15.67-12.53,22.69-3.06,4.57-6.32,8.91-9.71,12.88-6.36,7.49-13.36,14-20.79,19.38-.95-.74-1.98-1.4-3.06-1.96-3.01-1.49-5.96-3.14-8.83-4.93,7.18-5.26,13.93-11.51,20.08-18.6Zm-22.29,17.18s-.04-.02-.06-.04c-.47-.3-.92-.61-1.44-.95-.46-.31-.92-.63-1.4-.97-.59-.41-1.18-.84-1.77-1.26-.5-.37-1.01-.75-1.51-1.12l-.1-.07c-.66-.5-1.31-1.01-1.96-1.52-.01-.01-.02-.02-.03-.03-4.06-3.22-8.05-6.86-11.85-10.8,6.77-4.6,13.34-9.89,19.56-15.74,6.37,5.51,13.09,10.48,20.05,14.81-6,6.75-12.54,12.7-19.49,17.69Zm82.61-143.78c4.27-1.54,8.49-3.28,12.67-5.2,1.73,4.32,3.29,8.8,4.66,13.33,1.54,5.03,2.87,10.27,3.94,15.56,1.4,6.83,2.39,13.79,2.94,20.69-4.61.29-9.2.37-13.77.26-1.32-15.58-4.83-30.59-10.44-44.64Zm.93,9.74c-3.33.41-6.63.71-9.84.88-.25-2.44-.55-4.92-.93-7.42,2.52-.72,5.03-1.52,7.53-2.38,1.17,2.93,2.25,5.91,3.24,8.92Zm67.44-59.48c-3.54,4.03-7.31,7.92-11.2,11.56-4.99,4.69-10.32,9.13-15.86,13.21-2.58-3.78-5.33-7.47-8.18-11.01,15.74-11.63,29.32-26.17,39.32-42.13.06-.09.23-.35.43-.66.08-.13.17-.26.26-.4,3.8,2.64,7.41,5.44,10.84,8.38-4.54,7.34-9.79,14.42-15.61,21.05Zm17.47-19.42c6.52,5.82,12.3,12.18,17.2,19.01-4.68,7.18-10.31,13.94-16.83,20.23-4.5-6.62-9.63-13.02-15.28-19.05,5.54-6.38,10.54-13.16,14.91-20.19Zm-62.45,91.1c-.95-4.51-2.08-8.97-3.37-13.3,11.27-2.81,22.21-6.85,32.53-12.02,7.36-3.68,14.32-7.91,20.72-12.54,2.51,3.87,4.79,7.84,6.86,11.89-11.06,7.98-23.43,14.62-36.81,19.72-6.45,2.47-13.15,4.56-19.93,6.25Zm26,18.79c-7.3,1.71-14.95,2.89-22.75,3.49-.53-6.63-1.46-13.3-2.76-19.88,6.51-1.62,12.94-3.62,19.15-5.94,2.74,7.31,4.87,14.8,6.36,22.33Zm3.13-46.85c-2.97-5.78-6.27-11.44-9.85-16.82,5.32-3.91,10.45-8.15,15.27-12.62,5.18,5.58,9.83,11.47,13.96,17.61-5.99,4.35-12.51,8.32-19.38,11.83Zm18.31-73.98c-.21.32-.39.59-.45.7-3.82,6.08-8.16,11.96-12.95,17.54-5.04-4.32-10.43-8.41-16.04-12.19,3.48-5.74,6.63-11.7,9.4-17.75,7.2,3.29,13.99,7.07,20.31,11.28-.09.14-.18.29-.27.42Zm-15.01,20.08c-3.03,3.42-6.22,6.72-9.57,9.89-12.07-10.25-25.33-18.49-39.41-24.52,1.92-4.11,3.67-8.33,5.25-12.65,4.5,1.93,8.94,4.08,13.22,6.39,4.73,2.53,9.36,5.3,13.75,8.24,5.88,3.9,11.51,8.15,16.76,12.65Zm-11.38,11.57c-4.08,3.74-8.38,7.28-12.86,10.58-2.97-3.59-6.09-7.06-9.29-10.34,3-3.36,5.89-6.85,8.65-10.48,4.65,3.14,9.15,6.56,13.5,10.24Zm-14.01,13.02c3.36,4.1,6.58,8.43,9.56,12.87,3.77,5.6,7.24,11.49,10.35,17.54-4.12,2.02-8.34,3.86-12.63,5.51-7.17-13.85-16.16-26.38-26.76-37.23,3.34-3.06,6.58-6.29,9.7-9.67,3.38,3.48,6.67,7.16,9.78,10.98Zm4.98,36.8c-5.26,1.93-10.64,3.57-16.1,4.93-1.32-4.25-2.8-8.46-4.43-12.54,4.14-1.98,8.23-4.15,12.26-6.5,2.98,4.53,5.74,9.24,8.27,14.11Zm-27.43,43.19c-5.65-.22-11.25-.75-16.77-1.58.42-4.51.66-9.14.72-13.79,4.55-.25,9.13-.7,13.71-1.33,1.07,5.48,1.85,11.05,2.34,16.7Zm17.62,2.18c8.32-.58,16.47-1.79,24.25-3.61.81,4.53,1.39,9.07,1.74,13.58-13.33,3.16-27.4,4.56-41.82,4.13-6.91-.2-13.9-.82-20.79-1.86.86-4.54,1.52-9.1,1.99-13.57,11.28,1.69,22.92,2.14,34.63,1.33Zm-17.12,16.51c-.27,7.66-1.15,15.23-2.63,22.66-7.45-1.19-14.95-3.01-22.33-5.41,2.01-6.22,3.69-12.64,4.99-19.12,6.62,1,13.32,1.63,19.97,1.87Zm-19.81-19.37c-.51,5.23-1.29,10.57-2.32,15.88-1.32,6.76-3.05,13.47-5.14,19.96-4.25-1.45-8.55-3.14-12.82-5.03,4.74-14.92,7.24-30.18,7.41-45.39,4.53.2,9.1.2,13.69.01-.07,4.92-.34,9.82-.82,14.57Zm-22.53,29.79c-5.05-2.35-10.01-4.99-14.83-7.89,2.1-3.98,4.06-8.07,5.83-12.19,4.3,1.51,8.7,2.85,13.17,4.03-1.1,5.38-2.49,10.74-4.17,16.05Zm.24,2.8c5.07,2.29,10.19,4.29,15.22,5.96,7.83,2.62,15.82,4.6,23.75,5.87-.98,4.48-2.18,8.9-3.6,13.25-20.06-3.24-40.31-10.79-58.67-21.86,2.51-3.81,4.89-7.76,7.07-11.76,5.23,3.15,10.68,6.01,16.23,8.54Zm-6.91,14.63c-3.24,7.13-6.99,13.9-11.23,20.25-6.43-3.98-12.7-8.6-18.68-13.74,4.38-5.1,8.46-10.44,12.16-15.88,5.75,3.47,11.69,6.61,17.75,9.37Zm17.37,6.83c7.97,2.64,16.06,4.64,24.12,5.97-2.99,8.55-6.76,16.56-11.23,23.84-8.35-1.58-16.68-4.17-24.91-7.76,4.5-6.86,8.54-14.27,12.02-22.05Zm26.91,5.38c4.28-12.82,6.7-26.26,7.17-39.99,4.63.1,9.22.02,13.76-.25-.27,8.65-1.24,17.2-2.88,25.43-1.06,5.33-2.42,10.58-4.04,15.61-3.02,9.38-6.95,18.09-11.7,25.89-1.17-.32-2.37-.54-3.59-.65-3.38-.22-6.77-.6-10.16-1.16,4.59-7.6,8.43-15.96,11.44-24.88Zm23.38-40.4c8.41-.61,16.65-1.86,24.63-3.72.52,8.86.13,17.6-1.21,25.95-8.35,1.76-17.06,2.57-26.08,2.42,1.51-8,2.41-16.28,2.66-24.65Zm40.16-27.65c-1.68-8.11-4.09-16.28-7.16-24.32,7.46-3.76,14.51-8.02,21.1-12.76,3.99,8.15,7.02,16.5,8.99,24.85-7.1,4.96-14.67,8.99-22.93,12.23Zm15.51-39.46c-5.92-11.8-13.67-22.9-23.07-33.03,3.31-3.15,6.53-6.47,9.58-9.9,5.84,6.25,11.11,12.9,15.69,19.77,3.05,4.58,5.8,9.26,8.17,13.91,4.48,8.77,7.84,17.75,9.98,26.68-1.04.58-2.02,1.24-2.95,1.99h-.01s-.31.25-.31.25c-2.45,2.14-4.95,4.14-7.51,6.03-2.13-8.66-5.34-17.29-9.57-25.7Zm45.17-68.29c-5.63.14-11.06,2.57-15.01,6.49-5.18-7.07-11.37-13.75-18.42-19.87,4.13-8.92,7.02-17.67,8.72-26.45,5.23,1.9,11.29,1.74,16.41-.48,1.52-.66,2.95-1.49,4.28-2.48,3.55,11.29,7.55,26.52,9.83,43.46-1.96-.48-3.94-.71-5.81-.67Zm-16.66,8.35c-.74.93-1.41,1.91-1.99,2.96l-.02.04c-.06.11-.13.23-.19.35h.02c-1.42,2.86-2.98,5.67-4.68,8.42-12.67-17.34-30.86-31.72-52.65-41.66,1.88-4.26,3.59-8.56,5.07-12.83,7.97,3.61,15.59,7.84,22.68,12.61,4.41,2.96,8.69,6.2,12.7,9.63,7.34,6.28,13.75,13.17,19.06,20.48Zm-53.65-45.04c2.6-7.83,4.58-15.77,5.91-23.64,8.22,2.86,15.98,6.52,23.04,10.88.19.13.5.32.77.49-1.54,8.23-4.06,16.19-7.68,24.37-6.93-4.57-14.35-8.64-22.04-12.1Zm-2.67.27c-1.68,4.98-3.67,10.02-5.9,14.98-2.83,6.31-6.1,12.53-9.73,18.52-3.79-2.48-7.73-4.85-11.76-7.04,9.66-16.02,16.51-33.88,19.84-51.72.16-.86.34-2.03.5-3.04,4.53.98,8.96,2.18,13.28,3.59-1.35,8.23-3.45,16.53-6.23,24.71Zm-29.55,25.3c-4.07-2.16-8.27-4.17-12.52-5.99,1.51-4.31,2.87-8.7,4.05-13.18,5.56,1.12,11.05,2.55,16.41,4.25-2.38,5.11-5.03,10.1-7.94,14.92Zm-19.67,11.16c3.06,1.31,6.08,2.72,9.06,4.24-2.02,2.58-4.11,5.06-6.26,7.45-2.02-1.64-4.12-3.28-6.3-4.88,1.23-2.23,2.38-4.51,3.5-6.81Zm3.36,37.35c2.33,2.39,4.59,4.86,6.76,7.41-2.93,1.65-5.89,3.17-8.87,4.6-1.26-2.34-2.58-4.65-3.95-6.91,2.05-1.65,4.08-3.34,6.06-5.1Zm-34.37,64.36l-1.41-.02c-.03,3.28-.18,6.57-.44,9.85-3.17-.88-6.33-1.88-9.41-2.97.75-2.51,1.45-5.05,2.07-7.59,3.04.33,6.11.57,9.19.73Zm-34.79,17.18c-.61,1.41-1.45,3.35-2.06,4.66-.65,1.37-1.32,2.73-2.01,4.09-2.58-2.01-5.1-4.13-7.54-6.32,1.59-1.96,3.14-3.96,4.63-6.03,2.29,1.25,4.62,2.46,6.98,3.6Zm.15,5.69c.61-1.3,1.45-3.22,2.06-4.64,4.12,1.92,8.34,3.68,12.66,5.27-1.88,4.36-3.97,8.69-6.23,12.89-2.51,4.69-5.3,9.31-8.27,13.74-3.8,5.7-8.04,11.28-12.61,16.61-3.38-3-6.66-6.17-9.77-9.45,8.94-10.59,16.39-22.17,22.16-34.42Zm-23.85,32.62c-3.83-4.17-7.44-8.55-10.74-13.03,3.45-2.87,6.83-5.92,10.07-9.06,3.74,3.25,7.41,6.11,10.79,8.66-3.12,4.62-6.49,9.12-10.12,13.43Zm-.85,2.68c3.68,3.92,7.59,7.7,11.62,11.22,6.32,5.53,12.99,10.48,19.83,14.72-2.62,3.77-5.41,7.39-8.36,10.85-17.27-10.67-33.07-25.38-45.84-42.74,3.71-2.54,7.4-5.3,10.97-8.21,3.62,4.9,7.58,9.66,11.78,14.16Zm-12.01,10.87c-5.71,5.32-11.76,10.09-18.09,14.33-4.36-6.1-8.35-12.72-11.9-19.71,5.86-2.97,11.65-6.34,17.22-10.06,3.97,5.41,8.24,10.57,12.77,15.44Zm1.67,1.78c3.19,3.34,6.5,6.53,9.91,9.57-6.44,6.04-13.26,11.47-20.28,16.15-4.56,3.04-9.28,5.8-14.02,8.21-8.75,4.46-17.69,7.78-26.58,9.88-.57-1.04-1.23-2.03-1.98-2.96l-.04-.05s0-.01,0-.01c-.07-.1-.14-.18-.22-.28,0,0-.01,0-.01-.01-2.11-2.43-4.11-4.97-6.01-7.62,8.66-2.11,17.29-5.29,25.67-9.46,12.07-6.02,23.36-13.9,33.57-23.42Zm-60.75,30.74c-4.8-7.05-8.87-14.82-12.16-23.23,8.06-1.67,16.16-4.04,24.12-7.06,3.79,7.59,8.1,14.78,12.84,21.4-8.12,3.93-16.45,6.92-24.8,8.89Zm164.1-.02c4.57-7.59,8.39-16.02,11.37-25.06,9.47.28,18.6-.44,27.28-2.18.35,5.76,2.98,11.7,6.88,15.44,1.3,1.24,2.74,2.31,4.28,3.19-9.13,7.64-21.72,17.16-36.53,25.75-.29-2.01-.84-3.94-1.61-5.67-2.34-5.32-6.57-9.39-11.67-11.47Zm75.68-43.88c-4.07-3.89-9.65-6.02-15.2-6.02,1.33-8.69,1.66-17.81.98-27.14,8.83-3.29,16.79-7.34,24.05-12.23,2.42,5.25,6.98,9.57,12.35,11.66,1.48.58,3,1,4.55,1.25-6.57,12.98-14.57,25.79-23.08,37.09-1.04-1.73-2.28-3.3-3.65-4.61Zm37.68-75.02c-5.29-2.05-11.24-1.89-16.4.24-2.12-8.67-5.37-17.36-9.64-25.88,6.87-6.47,12.8-13.38,17.69-20.68,4.49,3.99,10.65,6.44,16.08,6.34,1.74-.04,3.45-.28,5.11-.71-1.36,15.13-3.93,29.9-7.62,43.63-1.65-1.23-3.43-2.24-5.22-2.94Zm-30.37-145.71c.63-6.77,5.32-12.18,11.54-15.54,4.85-2.61,19.12-4.53,25.16,6.32.37.8.74,1.61,1.09,2.43,3.13,7.77.94,16.75-5.44,22.34-1.52,1.33-3.22,2.41-5.07,3.21-4.68,2.03-10.25,2.13-15,.29.62-3.67,1.03-7.34,1.24-11.03.88.94,1.96,1.68,3.19,2.18,2.21.89,4.61.86,6.77-.08,2.16-.94,3.83-2.68,4.68-4.9.86-2.22.81-4.65-.14-6.83-1.97-4.54-7.21-6.65-11.68-4.71-3.32,1.44-5.38,4.74-5.27,8.41-.01.71.02,1.41.05,2.09.03.74.06,1.45.04,2.13-.54,13.39-3.81,26.48-9.97,39.99-3.46-2.89-7.1-5.64-10.85-8.19,5.58-12.47,8.74-24.96,9.66-38.11Zm13.62.62c.37-2.08,1.73-3.84,3.69-4.69,3.23-1.41,7.03.14,8.46,3.43.7,1.6.73,3.36.11,4.98-.62,1.61-1.82,2.87-3.37,3.55-1.56.67-3.3.69-4.89.04-1.61-.64-2.87-1.88-3.56-3.48-.33-.76-.52-1.56-.54-2.37.01-.53.05-1.01.12-1.46h-.02Zm-16.83-5.28c.4.24.95.58,1.43.88-.32,1.16-.54,2.36-.65,3.58-.24,3.39-.62,6.7-1.15,9.96-7.61-4.69-15.97-8.58-24.85-11.56-12.64-4.25-26.19-6.65-40.28-7.17.12-4.62.05-9.21-.21-13.77,24.62.82,47.32,7.06,65.71,18.08Zm-65.59-1.87c7.83.29,15.5,1.17,22.92,2.64-.16,1.02-.35,2.22-.51,3.08-1.17,6.26-2.78,12.53-4.8,18.71-6.4-2.07-12.96-3.77-19.51-5.09,1-6.46,1.63-12.92,1.9-19.34Zm-16.44-17.19c-.09-1.42-.21-2.9-.36-4.42,4.55-.28,9.19-.38,13.83-.31,1.24,13.34.79,27.02-1.33,40.78-4.52-.84-9.1-1.51-13.63-1.99.89-5.82,1.47-11.77,1.71-17.72.21-5.46.13-10.96-.22-16.34Zm12.93,38.68c6.84,1.33,13.68,3.1,20.35,5.26-1.49,4.32-3.19,8.6-5.07,12.81-14.71-4.71-30.47-7.3-45.66-7.52.18-3.28.25-6.38.21-9.39-.02-1.4-.07-2.83-.15-4.3,4.78.07,9.61.33,14.39.81,5.29.52,10.66,1.3,15.93,2.33Zm-15.31-37.28c.27,4.55.33,9.16.18,13.77-15.29,1.25-31.19,4.88-44.95,10.28-1.54-4.33-3.23-8.56-5.07-12.67,15.6-6.14,32.77-10.06,49.84-11.38Zm-32.32,22.36c4.36-1.29,8.83-2.42,13.36-3.36,1.03,7.51,1.56,13.73,1.65,19.48.09,5.76-.25,11.86-1.06,19.06-4.56-1.04-9.13-1.87-13.66-2.47,1.18-10.55,1.08-21.54-.29-32.71Zm-1.55,10.18c-2.68.27-5.32.6-7.85.99-.71-2.42-1.46-4.8-2.26-7.17,3-1.17,6.11-2.26,9.28-3.26.38,3.16.66,6.31.83,9.44Zm-20.42-24.9c4.03,8.25,7.44,17.07,10.14,26.28-4.58.78-9.11,1.77-13.55,2.96-.42-1.45-.87-2.93-1.35-4.41-1.7-5.18-3.71-10.34-5.99-15.35-.57-1.23-1.11-2.37-1.64-3.46,4-2.15,8.15-4.17,12.39-6.02Zm-5.76,29.9c-1.02.29-2.03.59-3.04.9-.13-.23-.25-.45-.37-.67-.22-.4-.44-.79-.68-1.22,1.08-.65,2.15-1.29,3.21-1.9.31.97.6,1.93.88,2.89Zm-19.73,7.19c-4.3,3.57-8.27,7.43-11.84,11.48-3.05-3.12-7.79-7.27-10.18-9.38-.14-.12-.27-.23-.39-.34,8.5-9.75,26.47-23.1,35.42-27.25,1.9,4.26,3.61,8.64,5.08,13.04-1.56.88-3.15,1.82-4.76,2.82-4.74,2.96-9.23,6.2-13.33,9.63Zm24.28,8.78c-5.46,1.71-10.68,3.81-15.56,6.24-1.61-4.24-3.54-8.82-6.37-13.78,3.5-2.87,7.26-5.6,11.22-8.13.21.37.4.72.61,1.1.26.48.53.98.88,1.57l.49.85.94-.29c6.73-2.14,13.76-3.81,20.89-4.96,2.77-.45,5.68-.83,8.65-1.14.17,4.69.12,9.33-.17,13.89-7.48.94-14.74,2.5-21.58,4.65Zm21.39-2.16c-.09,1.15-.22,2.29-.35,3.44-1.03-.12-2.07-.25-3.1-.35-.08-.9-.15-1.63-.27-2.53,1.23-.2,2.47-.4,3.72-.56Zm-19.02,19.69c.16-5.53-.06-10.5-.66-15.48,4.36-1.33,8.89-2.42,13.55-3.26.13.93.19,1.68.28,2.68l.15,1.71,1.02.09c6.96.6,14.09,1.75,21.2,3.43,2.79.67,5.61,1.45,8.4,2.28-1.64,4.4-3.47,8.67-5.48,12.75-7.26-2.01-14.56-3.35-21.69-3.98-5.67-.51-11.3-.58-16.77-.22Zm37.32,6.42c-.5.97-.99,1.95-1.51,2.9-.98-.55-1.97-1.09-2.95-1.6.08-.28.16-.54.23-.79.15-.47.29-.93.43-1.48,1.27.3,2.54.63,3.8.97Zm-25.15,10.75c1.92-4.28,3.86-8.98,5.38-14.42,4.49.44,9.03,1.16,13.59,2.16-.12.46-.25.87-.38,1.31-.16.52-.33,1.07-.52,1.8l-.26.96.88.45c1.6.82,3.22,1.7,4.82,2.62,4.61,2.6,9.19,5.55,13.62,8.74,2.4,1.75,4.73,3.54,6.96,5.35-3.2,3.44-6.52,6.67-9.96,9.68-5.96-4.64-12.21-8.68-18.59-12-5.12-2.68-10.34-4.91-15.54-6.65Zm4.7,20.66c3.45-3.23,7.07-6.85,10.61-11.37,4.05,2.15,8.03,4.6,11.92,7.31-.66.83-1.27,1.46-2.05,2.25l-.97.99.71.85c1.28,1.53,2.41,2.93,3.46,4.28,3.2,4.1,6.31,8.58,9.23,13.3,1.52,2.48,2.98,5.03,4.36,7.6-4.27,1.95-8.58,3.64-12.92,5.11-3.72-6.57-7.93-12.69-12.53-18.2-3.66-4.4-7.64-8.48-11.82-12.12Zm-4,21.37c4.97-1.89,9.86-4.22,14.58-6.9,2.95,3.59,5.73,7.45,8.31,11.51-.66.34-1.22.54-1.94.78-.34.12-.71.24-1.13.4l-1.09.4.35,1.11c.54,1.7,1.06,3.47,1.56,5.28,1.41,5.14,2.55,10.46,3.4,15.83.44,2.73.78,5.47,1.07,8.21-4.68.18-9.32.13-13.89-.17-.91-7.16-2.54-14.28-4.86-21.2-1.7-5.05-3.83-10.18-6.36-15.25Zm-11.43,33.83c.34-5.27.33-10.69-.04-16.12,5.22.15,10.52-.1,15.82-.73,1.45,4.43,2.6,8.95,3.46,13.5-1.09.17-1.87.23-3.21.19l-1.16-.04-.1,1.15c-.62,6.98-1.77,14.05-3.43,21.02-.66,2.78-1.41,5.57-2.25,8.37-4.39-1.63-8.66-3.46-12.76-5.48.47-1.7.89-3.4,1.27-5.09,1.22-5.5,2.03-11.14,2.4-16.77Zm-32.25,25.3c6.46-9.09,11.53-19.05,15.1-29.61,4.61,2.04,9.32,3.69,14.63,5.14-.36,4.77-1.02,9.54-2.01,14.21-1.25-.28-2.45-.55-3.75-.91l-.95-.25-.46.87c-4.97,9.51-10.04,17.34-15.86,24.53-3.46-3.22-6.71-6.55-9.69-9.95,1.06-1.36,2.07-2.72,2.99-4.03Zm-18.29,11.73l10.23-9.92c.8.98,1.85,2.25,2.56,3.07,3.48,4.04,7.35,8.01,11.5,11.79,2.86,2.6,5.84,5.11,8.88,7.48-2.14,4.05-4.47,8.02-6.99,11.89-5.57-4.21-11.96-9.29-18.04-15.5-2.99-3.06-5.69-5.86-8.14-8.81Zm2.64,6.62c1.21,1.27,2.45,2.56,3.75,3.9,1.92,1.96,3.87,3.79,5.81,5.54-3.43,3.32-7.02,6.53-10.68,9.54-4.17,3.44-8.48,6.67-12.84,9.6-5.78,3.92-11.8,7.46-17.91,10.56-1.99-4.08-3.83-8.31-5.49-12.61,13.52-6.98,26.71-16.35,37.36-26.53Zm-55.61,23.62c4.53-1.27,8.92-2.7,13.07-4.26.9,2.9,1.36,4,2.5,7.02,1.93,5.12,4.12,10.16,6.52,14.97,3.72,7.48,7.96,14.55,12.6,21.04-3.88,2.5-7.87,4.78-11.95,6.85-9.97-13.88-17.45-28.36-22.74-45.62Zm-48.18,19.62c16.17,0,33.13-3.11,49.32-9.14,1.66,4.3,3.49,8.52,5.47,12.64-8.23,3.1-16.61,5.51-24.93,7.14-5.38,1.05-10.76,1.8-15.97,2.2-9.8.77-19.38.4-28.48-1.08-.12-1.13-.34-2.24-.65-3.34v-.34l-.13-.13s-.02-.08-.03-.11h-.02c-.99-3.01-1.85-6.08-2.57-9.21,5.83.9,11.85,1.37,17.99,1.37Zm-22.55-12.42c.86,7.92,2.46,13.99,4.91,21.33l.07.3.02.02c1.75,6.43-.1,13.67-4.75,18.5-1.36,1.4-3.05,2.67-4.93,3.69-3.19-2.53-6.26-5.09-9.18-7.68,2.25-.05,4.46-.95,6.13-2.68,2.05-2.12,2.82-5.17,2.19-8.02h0s-.02-.07-.03-.1c-.12-.51-.27-1.01-.49-1.51-.01-.05-.03-.1-.05-.15-.3-.81-.66-1.62-1-2.41-.4-.9-.81-1.84-1.13-2.75-1.32-3.78-2.42-7.71-3.29-11.67-.64-2.91-1.1-4.28-1.51-7.37,4.66.25,8.95.41,13.03.5Zm-18.04,32.36l-.11-.1c-.22-.2-.42-.4-.63-.6l-.1-.09h-.02c-2.31-2.5-2.34-6.39.01-8.83,1.18-1.22,2.78-1.9,4.51-1.92,1.77-.01,3.37.64,4.63,1.85.59.57,1.05,1.22,1.38,1.94.18.49.34.97.46,1.44.44,2.05-.12,4.22-1.59,5.74-2.26,2.35-5.93,2.58-8.54.57Zm-9.48,8.23l.07-.07c-7.78-7.6-8.04-19.6-.59-27.33,3.42-3.55,8.9-5.86,14.09-6.01.02.07.03.14.04.21.88,4.01,2,7.98,3.32,11.81-1.18-.54-2.48-.82-3.82-.83-2.38.03-4.6.98-6.23,2.67-3.38,3.51-3.23,9.15.34,12.59.2.19.41.38.63.55l.14.12c14.8,13.89,34.13,27.37,54.51,38.05.02,5.39,2.01,10.47,5.39,14.41-24.8-11.12-47.76-26.63-67.89-46.17Zm77.26,50.14l.05-.12c-7.66-3.06-12.62-10.68-12.35-18.96.07-2.23.53-4.41,1.33-6.49,1.82-4.63,5.96-8.9,10.65-11.03,2.06,2.97,4.25,5.8,6.56,8.49.4.47.83.92,1.28,1.37-3.7-.16-7.24,1.99-8.64,5.58-1.71,4.36.37,9.32,4.65,11.28l-.04.11c19.15,7.36,42.74,12.55,66.49,14.62,2.15,5.03,6.04,9.07,10.75,11.5-28.01-.68-55.26-6.24-80.73-16.35Zm91.32,16.38l-.92.02c-8.05-.21-15.46-5.49-18.44-13.15-.82-2.08-1.27-4.27-1.31-6.5-.11-5.01,2.04-10.4,5.64-14.2,2.77,1.75,5.6,3.37,8.5,4.86.83.43,1.68.8,2.53,1.15-1.26.46-2.42,1.2-3.38,2.19-1.67,1.7-2.56,3.94-2.5,6.3.1,4.79,4.09,8.63,8.93,8.64v.03c20.85-.57,43.62-4.6,65.93-11.67,3.96,4.04,9.19,6.36,14.61,6.74-25.11,9.68-51.94,15.02-79.59,15.59Zm89.13-19.52l-.04-.08c-7.86,3.39-17.05,1.4-22.85-4.95-1.47-1.61-2.66-3.43-3.53-5.42-2.22-5.06-2.32-11.18-.29-15.8,4.36.77,8.72,1.27,13.08,1.5-2.73,2.51-3.72,6.54-2.16,10.08,1.9,4.3,6.89,6.31,11.3,4.65l.02.03c23.86-10.69,44.09-25.73,57.04-36.64,5.2,2.23,10.89,2.39,16,.7-20.28,19.49-43.46,34.95-68.57,45.93Zm75.82-53.17l-.04-.05c-5.89,6.08-15.09,7.71-22.9,4.05-1.94-.9-3.72-2.11-5.29-3.6-3.56-3.41-5.92-8.91-6.14-14.18,3.47-.77,6.87-1.71,10.19-2.81.62-.2,1.23-.43,1.82-.66-.55,1.19-.82,2.51-.8,3.86.03,2.38.99,4.59,2.69,6.22,3.39,3.24,8.77,3.2,12.21-.02l.09.08c13.8-14.64,27.51-34.64,37.74-55.03,5.91.27,11.6-1.83,15.92-5.58-10.94,24.69-26.22,47.58-45.49,67.72Zm49.43-77.2l-.09-.03c-3.24,8.15-11.63,13.35-20.41,12.6-1.92-.14-3.81-.57-5.63-1.29-4.92-1.91-9.09-5.94-11.19-10.8,3.11-2.21,6.1-4.59,8.97-7.14.26-.23.51-.46.76-.7-.04,1.29.2,2.59.73,3.81.94,2.19,2.66,3.87,4.86,4.72,2.2.86,4.61.81,6.77-.13,2.04-.9,3.64-2.49,4.55-4.51l.07.03c7.46-19.5,12.45-42.27,14.47-65.84,5.36-2.08,9.6-6.02,12.07-10.95-.59,27.81-6.02,54.88-15.93,80.23Z"/>
      <polygon class="cls-1" points="266.75 159.3 265.72 159.95 265.71 159.95 266.75 159.3"/>
    </g>
  </g>
  <g>
    <path class="cls-1" d="m182.25,287.6c.61-1,1.82-1.33,2.75-.81.96.48,1.32,1.72.8,2.76-.51,1.04-1.78,1.45-2.82.92-1.02-.57-1.33-1.89-.74-2.88Z"/>
    <path class="cls-1" d="m187.71,290.05c.64-.97,1.86-1.31,2.76-.73.92.53,1.26,1.79.73,2.82-.53,1.01-1.85,1.43-2.85.79-1.01-.62-1.28-1.9-.64-2.87Z"/>
    <path class="cls-1" d="m193.47,291.81c.64-.96,1.83-1.24,2.74-.68.9.59,1.26,1.84.7,2.86-.55,1.03-1.86,1.33-2.87.73-.99-.65-1.22-1.95-.58-2.91Z"/>
    <path class="cls-1" d="m199.28,292.91c.59-1.01,1.76-1.34,2.69-.8.94.52,1.36,1.79.85,2.82-.51,1.04-1.82,1.45-2.84.84-1.02-.58-1.29-1.87-.7-2.86Z"/>
    <path class="cls-1" d="m205.35,293.07c.6-.94,1.75-1.29,2.69-.7.93.57,1.34,1.82.8,2.85-.54,1.03-1.88,1.35-2.87.76-.99-.64-1.22-1.94-.62-2.91Z"/>
    <path class="cls-1" d="m211.41,292.56c.26-.47.67-.77,1.12-.89.45-.13.95-.09,1.4.17.91.53,1.33,1.71.83,2.68-.5.97-1.74,1.35-2.69.76-.94-.56-1.19-1.79-.67-2.72Z"/>
    <path class="cls-1" d="m217.14,291.1c.56-.91,1.69-1.08,2.57-.53.89.58,1.23,1.78.66,2.73-.57.94-1.85,1.18-2.73.56-.9-.65-1.07-1.88-.5-2.76Z"/>
    <path class="cls-1" d="m222.99,289.15c.44-.83,1.41-1.13,2.26-.66.84.44,1.23,1.51.78,2.37-.45.85-1.53,1.21-2.38.7-.84-.5-1.1-1.59-.66-2.4Z"/>
    <path class="cls-1" d="m228.34,286.36c.43-.74,1.35-1.01,2.14-.57.79.44,1.12,1.42.69,2.23-.42.82-1.47,1.06-2.23.59-.77-.47-1.01-1.5-.59-2.25Z"/>
    <path class="cls-1" d="m233.37,282.97c.37-.69,1.24-.89,1.95-.51.71.38,1.02,1.3.61,2-.4.71-1.31.96-2,.53-.7-.43-.92-1.33-.56-2.02Z"/>
    <path class="cls-1" d="m238.07,278.98c.32-.58,1.07-.76,1.68-.41.61.35.83,1.11.48,1.72-.34.61-1.13.78-1.72.4-.59-.38-.77-1.14-.44-1.71Z"/>
    <path class="cls-1" d="m242.14,274.61c.27-.48.88-.65,1.39-.39.51.26.74.9.45,1.4-.28.5-.91.68-1.41.39-.5-.29-.69-.92-.43-1.4Z"/>
    <path class="cls-1" d="m245.76,269.67c.22-.37.72-.48,1.12-.25.39.23.52.73.29,1.12-.23.38-.73.49-1.12.24-.38-.24-.51-.74-.28-1.11Z"/>
    <path class="cls-1" d="m248.81,264.46c.15-.24.47-.31.72-.16.25.15.33.46.18.7-.15.24-.47.31-.72.16-.25-.15-.33-.46-.18-.7Z"/>
    <path class="cls-1" d="m177.11,284.32c.69-.93,1.97-1.19,2.85-.59.88.61,1.1,1.9.51,2.87-.62,1.01-1.9,1.27-2.86.61-.97-.66-1.19-1.96-.5-2.89Z"/>
    <path class="cls-1" d="m172.44,280.63c.72-.89,1.96-1.05,2.79-.42.87.59,1.05,1.83.42,2.77-.64.94-1.91,1.18-2.86.53-.94-.66-1.06-2.01-.35-2.88Z"/>
    <path class="cls-1" d="m168.1,276.49c.66-.83,1.88-1.01,2.69-.44.81.57.95,1.74.36,2.63-.6.89-1.78,1.13-2.65.49-.87-.64-1.05-1.85-.39-2.68Z"/>
    <path class="cls-1" d="m164.41,271.93c.58-.77,1.67-.94,2.4-.43.72.53.96,1.5.42,2.31-.52.8-1.59,1.06-2.42.54-.85-.51-.96-1.67-.4-2.42Z"/>
    <path class="cls-1" d="m161.45,267.08c.55-.69,1.58-.82,2.28-.33.7.49.82,1.44.29,2.17-.53.73-1.52.93-2.24.41-.72-.53-.88-1.56-.33-2.25Z"/>
    <path class="cls-1" d="m158.99,261.62c.52-.66,1.48-.77,2.12-.3.33.23.49.58.55.94.07.35-.01.74-.25,1.07-.48.67-1.42.87-2.12.4-.74-.46-.81-1.46-.3-2.11Z"/>
    <path class="cls-1" d="m157.35,256.03c.41-.58,1.24-.69,1.84-.3.6.39.74,1.15.32,1.73-.41.58-1.22.77-1.82.37-.6-.4-.75-1.23-.34-1.8Z"/>
    <path class="cls-1" d="m156.62,250.06c.38-.45,1.06-.49,1.5-.14.45.36.48.98.12,1.43-.35.44-1.01.54-1.49.19-.47-.35-.5-1.03-.13-1.47Z"/>
    <path class="cls-1" d="m156.66,244.29c.28-.35.8-.39,1.16-.12.36.28.43.77.15,1.11-.28.34-.8.42-1.16.14-.36-.27-.43-.79-.15-1.14Z"/>
    <path class="cls-1" d="m157.41,239.28c.2-.21.55-.2.77,0,.22.21.24.54.03.75s-.55.21-.77,0c-.22-.21-.23-.55-.03-.76Z"/>
  </g>
</svg>